<?xml version="1.0" encoding="utf-8"?>
<!-- Generator: Adobe Illustrator 23.0.5, SVG Export Plug-In . SVG Version: 6.00 Build 0)  -->
<svg version="1.1" id="Nombre_del_proyecto" xmlns="http://www.w3.org/2000/svg" xmlns:xlink="http://www.w3.org/1999/xlink"
	 x="0px" y="0px" viewBox="0 0 500 500" style="enable-background:new 0 0 500 500;" xml:space="preserve">
<style type="text/css">
	.st0{display:none;}
	.st1{display:inline;}
	.st2{fill:#2F2F2F;}
	.st3{fill:#FFFFFF;}
	.st4{fill:url(#Marco_con_fondo_2_);}
	.st5{fill:url(#Ícono_9_);}
	.st6{fill:url(#SVGID_1_);}
	.st7{fill:url(#SVGID_2_);}
	.st8{fill:url(#Ícono_10_);}
	.st9{fill:url(#Marco_con_fondo_3_);}
	.st10{fill:url(#Ícono_11_);}
	.st11{fill:url(#Fondo_del_marco_1_);}
	.st12{fill:url(#Marco_3_);}
	.st13{fill:url(#Ícono_12_);}
	.st14{display:none;opacity:0.3;fill:url(#Área_estandarizada_para_el_ícono_2_);}
	.st15{fill:url(#SVGID_3_);}
	.st16{fill:url(#SVGID_4_);}
	.st17{fill:url(#SVGID_5_);}
	.st18{fill:url(#SVGID_6_);}
	.st19{fill:url(#SVGID_7_);}
	.st20{fill:url(#SVGID_8_);}
	.st21{fill:url(#SVGID_9_);}
	.st22{fill:url(#SVGID_10_);}
	.st23{fill:url(#SVGID_11_);}
	.st24{fill:url(#SVGID_12_);}
	.st25{fill:url(#SVGID_13_);}
	.st26{fill:url(#SVGID_14_);}
	.st27{fill:url(#SVGID_15_);}
	.st28{fill:url(#SVGID_16_);}
	.st29{fill:url(#SVGID_17_);}
	.st30{fill:url(#SVGID_18_);}
	.st31{fill:url(#SVGID_19_);}
	.st32{fill:url(#SVGID_20_);}
	.st33{fill:url(#Ícono_13_);}
	.st34{display:none;opacity:0.3;fill:url(#Área_estandarizada_para_el_ícono_3_);}
	.st35{fill:#1F1F1F;}
	.st36{fill:url(#Degradado_Oscuro_1_);}
	.st37{fill:#B8B8B8;}
	.st38{fill:url(#Degradado_Claro_1_);}
	.st39{fill:#AE3140;}
	.st40{fill:#CE493D;}
	.st41{fill:url(#Degradado_Principal_1_);}
	.st42{fill:none;stroke:#EDFF00;stroke-miterlimit:10;}
</style>
<g id="Fondos_1_" class="st0">
	<rect class="st1" width="500" height="500"/>
</g>
<g id="Oscuro_Individual_1_">
	<g>
		<linearGradient id="SVGID_1_" gradientUnits="userSpaceOnUse" x1="250" y1="37.9396" x2="250" y2="462.0604">
			<stop  offset="0" style="stop-color:#2F2F2F"/>
			<stop  offset="0.5303" style="stop-color:#292929"/>
			<stop  offset="1" style="stop-color:#1F1F1F"/>
		</linearGradient>
		<path class="st6" d="M380.3,37.9H119.7c-45.2,0-81.8,36.6-81.8,81.8v260.6c0,45.2,36.6,81.8,81.8,81.8h260.6
			c45.2,0,81.8-36.6,81.8-81.8V119.7C462.1,74.5,425.5,37.9,380.3,37.9z"/>
		<linearGradient id="SVGID_2_" gradientUnits="userSpaceOnUse" x1="250" y1="487.3403" x2="250" y2="12.6597">
			<stop  offset="0" style="stop-color:#B8B8B8"/>
			<stop  offset="3.082472e-02" style="stop-color:#C1C1C1"/>
			<stop  offset="0.1291" style="stop-color:#D8D8D8"/>
			<stop  offset="0.243" style="stop-color:#E9E9E9"/>
			<stop  offset="0.3803" style="stop-color:#F6F6F6"/>
			<stop  offset="0.5651" style="stop-color:#FDFDFD"/>
			<stop  offset="1" style="stop-color:#FFFFFF"/>
		</linearGradient>
		<path class="st7" d="M380.3,37.9c45.2,0,81.8,36.6,81.8,81.8v260.6c0,45.2-36.6,81.8-81.8,81.8H119.7c-45.2,0-81.8-36.6-81.8-81.8
			V119.7c0-45.2,36.6-81.8,81.8-81.8H380.3 M380.3,12.7H119.7C91.1,12.7,64.2,23.8,44,44c-20.2,20.2-31.4,47.1-31.4,75.7v260.6
			c0,28.6,11.1,55.5,31.4,75.7c20.2,20.2,47.1,31.4,75.7,31.4h260.6c28.6,0,55.5-11.1,75.7-31.4s31.4-47.1,31.4-75.7V119.7
			c0-28.6-11.1-55.5-31.4-75.7S408.9,12.7,380.3,12.7L380.3,12.7z"/>
	</g>
	<linearGradient id="Ícono_9_" gradientUnits="userSpaceOnUse" x1="99.1459" y1="250" x2="400.8541" y2="250">
		<stop  offset="0" style="stop-color:#CE493D"/>
		<stop  offset="1" style="stop-color:#AE3140"/>
	</linearGradient>
	<path id="Ícono_5_" class="st5" d="M389.4,329.4H110.6c-6.3,0-11.4,6.5-11.4,14.5v42.5c0,8,5.1,14.5,11.4,14.5h278.9
		c6.3,0,11.4-6.5,11.4-14.5v-42.5C400.9,335.9,395.7,329.4,389.4,329.4z M250,373.5c0,3.4-2.2,6.1-4.8,6.1H121.5
		c-2.7,0-4.8-2.7-4.8-6.1v-16.7c0-3.4,2.2-6.1,4.8-6.1h123.7c2.7,0,4.8,2.7,4.8,6.1V373.5z M389.4,214.3H110.6
		c-6.3,0-11.4,6.5-11.4,14.5v42.5c0,8,5.1,14.5,11.4,14.5h278.9c6.3,0,11.4-6.5,11.4-14.5v-42.5
		C400.9,220.8,395.7,214.3,389.4,214.3z M383.3,255.8c0,4.8-3.1,8.7-6.8,8.7h-253c-3.8,0-6.8-3.9-6.8-8.7v-11.6
		c0-4.8,3.1-8.7,6.8-8.7h253c3.8,0,6.8,3.9,6.8,8.7V255.8z M389.4,99.1H110.6c-6.3,0-11.4,6.5-11.4,14.5v42.5
		c0,8,5.1,14.5,11.4,14.5h278.9c6.3,0,11.4-6.5,11.4-14.5v-42.5C400.9,105.6,395.7,99.1,389.4,99.1z M250,143.2
		c0,3.4-2.2,6.1-4.8,6.1H121.5c-2.7,0-4.8-2.7-4.8-6.1v-16.7c0-3.4,2.2-6.1,4.8-6.1h123.7c2.7,0,4.8,2.7,4.8,6.1V143.2z"/>
</g>
</svg>
