<?xml version="1.0" encoding="utf-8"?>
<!-- Generator: Adobe Illustrator 23.0.5, SVG Export Plug-In . SVG Version: 6.00 Build 0)  -->
<svg version="1.1" id="Nombre_del_proyecto" xmlns="http://www.w3.org/2000/svg" xmlns:xlink="http://www.w3.org/1999/xlink"
	 x="0px" y="0px" viewBox="0 0 500 500" style="enable-background:new 0 0 500 500;" xml:space="preserve">
<style type="text/css">
	.st0{display:none;}
	.st1{display:inline;}
	.st2{fill:#2F2F2F;}
	.st3{fill:#FFFFFF;}
	.st4{fill:none;stroke:#FFFFFF;stroke-width:12.1938;stroke-linecap:round;stroke-linejoin:round;stroke-miterlimit:10;}
	.st5{fill:none;stroke:#000000;stroke-width:12.1938;stroke-linecap:round;stroke-linejoin:round;stroke-miterlimit:10;}
	.st6{fill:url(#Marco_con_fondo_2_);}
	.st7{fill:url(#SVGID_1_);}
	.st8{fill:url(#SVGID_2_);}
	.st9{fill:none;stroke:url(#SVGID_3_);stroke-width:12.1938;stroke-linecap:round;stroke-linejoin:round;stroke-miterlimit:10;}
	.st10{fill:url(#SVGID_4_);}
	.st11{fill:url(#SVGID_5_);}
	.st12{fill:url(#SVGID_6_);}
	.st13{fill:url(#SVGID_7_);}
	.st14{fill:url(#SVGID_8_);}
	.st15{fill:none;stroke:url(#SVGID_9_);stroke-width:12.1938;stroke-linecap:round;stroke-linejoin:round;stroke-miterlimit:10;}
	.st16{fill:url(#SVGID_10_);}
	.st17{fill:url(#Marco_con_fondo_3_);}
	.st18{fill:url(#SVGID_11_);}
	.st19{fill:url(#SVGID_12_);}
	.st20{fill:none;stroke:url(#SVGID_13_);stroke-width:11.9058;stroke-linecap:round;stroke-linejoin:round;stroke-miterlimit:10;}
	.st21{fill:url(#SVGID_14_);}
	.st22{fill:url(#Fondo_del_marco_1_);}
	.st23{fill:url(#Marco_3_);}
	.st24{fill:url(#SVGID_15_);}
	.st25{fill:url(#SVGID_16_);}
	.st26{fill:none;stroke:url(#SVGID_17_);stroke-width:12.1938;stroke-linecap:round;stroke-linejoin:round;stroke-miterlimit:10;}
	.st27{fill:url(#SVGID_18_);}
	.st28{display:none;opacity:0.3;fill:url(#Área_estandarizada_para_el_ícono_2_);}
	.st29{fill:url(#SVGID_19_);}
	.st30{fill:url(#SVGID_20_);}
	.st31{fill:url(#SVGID_21_);}
	.st32{fill:url(#SVGID_22_);}
	.st33{fill:url(#SVGID_23_);}
	.st34{fill:url(#SVGID_24_);}
	.st35{fill:url(#SVGID_25_);}
	.st36{fill:url(#SVGID_26_);}
	.st37{fill:url(#SVGID_27_);}
	.st38{fill:url(#SVGID_28_);}
	.st39{fill:url(#SVGID_29_);}
	.st40{fill:url(#SVGID_30_);}
	.st41{fill:url(#SVGID_31_);}
	.st42{fill:url(#SVGID_32_);}
	.st43{fill:url(#SVGID_33_);}
	.st44{fill:url(#SVGID_34_);}
	.st45{fill:url(#SVGID_35_);}
	.st46{fill:url(#SVGID_36_);}
	.st47{fill:url(#SVGID_37_);}
	.st48{fill:url(#SVGID_38_);}
	.st49{fill:none;stroke:url(#SVGID_39_);stroke-width:15;stroke-linecap:round;stroke-linejoin:round;stroke-miterlimit:10;}
	.st50{fill:url(#SVGID_40_);}
	.st51{display:none;opacity:0.3;fill:url(#Área_estandarizada_para_el_ícono_3_);}
	.st52{fill:#1F1F1F;}
	.st53{fill:url(#Degradado_Oscuro_1_);}
	.st54{fill:#B8B8B8;}
	.st55{fill:url(#Degradado_Claro_1_);}
	.st56{fill:#FFB347;}
	.st57{fill:#FFCC33;}
	.st58{fill:url(#Degradado_Principal_1_);}
	.st59{fill:none;stroke:#EDFF00;stroke-miterlimit:10;}
	.st60{fill:#999999;}
	.st61{display:inline;fill:#AA0707;}
	.st62{display:inline;fill:#DD5757;}
</style>
<g id="Fondos_1_" class="st0">
	<rect class="st1" width="500" height="500"/>
</g>
<g id="Oscuro_Individual_1_">
	<g>
		<linearGradient id="SVGID_1_" gradientUnits="userSpaceOnUse" x1="250" y1="37.9396" x2="250" y2="462.0604">
			<stop  offset="0" style="stop-color:#2F2F2F"/>
			<stop  offset="0.5303" style="stop-color:#292929"/>
			<stop  offset="1" style="stop-color:#1F1F1F"/>
		</linearGradient>
		<path class="st7" d="M380.3,37.9H119.7c-45.2,0-81.8,36.6-81.8,81.8v260.6c0,45.2,36.6,81.8,81.8,81.8h260.6
			c45.2,0,81.8-36.6,81.8-81.8V119.7C462.1,74.5,425.5,37.9,380.3,37.9z"/>
		<linearGradient id="SVGID_2_" gradientUnits="userSpaceOnUse" x1="250" y1="487.3403" x2="250" y2="12.6597">
			<stop  offset="0" style="stop-color:#B8B8B8"/>
			<stop  offset="3.082472e-02" style="stop-color:#C1C1C1"/>
			<stop  offset="0.1291" style="stop-color:#D8D8D8"/>
			<stop  offset="0.243" style="stop-color:#E9E9E9"/>
			<stop  offset="0.3803" style="stop-color:#F6F6F6"/>
			<stop  offset="0.5651" style="stop-color:#FDFDFD"/>
			<stop  offset="1" style="stop-color:#FFFFFF"/>
		</linearGradient>
		<path class="st8" d="M380.3,37.9c45.2,0,81.8,36.6,81.8,81.8v260.6c0,45.2-36.6,81.8-81.8,81.8H119.7c-45.2,0-81.8-36.6-81.8-81.8
			V119.7c0-45.2,36.6-81.8,81.8-81.8H380.3 M380.3,12.7H119.7C91.1,12.7,64.2,23.8,44,44c-20.2,20.2-31.4,47.1-31.4,75.7v260.6
			c0,28.6,11.1,55.5,31.4,75.7c20.2,20.2,47.1,31.4,75.7,31.4h260.6c28.6,0,55.5-11.1,75.7-31.4s31.4-47.1,31.4-75.7V119.7
			c0-28.6-11.1-55.5-31.4-75.7S408.9,12.7,380.3,12.7L380.3,12.7z"/>
	</g>
	<g>
		<linearGradient id="SVGID_3_" gradientUnits="userSpaceOnUse" x1="322.3499" y1="394.9031" x2="322.3499" y2="328.3225">
			<stop  offset="6.926126e-08" style="stop-color:#B8B8B8"/>
			<stop  offset="2.116860e-02" style="stop-color:#BDBDBD"/>
			<stop  offset="0.1338" style="stop-color:#D5D5D5"/>
			<stop  offset="0.2619" style="stop-color:#E8E8E8"/>
			<stop  offset="0.4124" style="stop-color:#F5F5F5"/>
			<stop  offset="0.6066" style="stop-color:#FDFDFD"/>
			<stop  offset="1" style="stop-color:#FFFFFF"/>
		</linearGradient>
		<path style="fill:url(#SVGID_3_);" d="M250,359.9c0,0,8.1-25.2,30.9-30.9c22.8-5.7,39,23.6,63.4,23.6c24.4,0,50.4-8.1,50.4-8.1
			L384.2,386H270.3v8.9H250V359.9z"/>
		<linearGradient id="SVGID_4_" gradientUnits="userSpaceOnUse" x1="177.6501" y1="394.9031" x2="177.6501" y2="328.3225">
			<stop  offset="6.926126e-08" style="stop-color:#B8B8B8"/>
			<stop  offset="2.116860e-02" style="stop-color:#BDBDBD"/>
			<stop  offset="0.1338" style="stop-color:#D5D5D5"/>
			<stop  offset="0.2619" style="stop-color:#E8E8E8"/>
			<stop  offset="0.4124" style="stop-color:#F5F5F5"/>
			<stop  offset="0.6066" style="stop-color:#FDFDFD"/>
			<stop  offset="1" style="stop-color:#FFFFFF"/>
		</linearGradient>
		<path class="st10" d="M250,359.9c0,0-8.1-25.2-30.9-30.9c-22.8-5.7-39,23.6-63.4,23.6s-50.4-8.1-50.4-8.1l10.5,41.5h113.9v8.9H250
			V359.9z"/>
		<g>
			<linearGradient id="SVGID_5_" gradientUnits="userSpaceOnUse" x1="250" y1="379.8641" x2="250" y2="401">
				<stop  offset="0" style="stop-color:#FFCC33"/>
				<stop  offset="1" style="stop-color:#FFB347"/>
			</linearGradient>
			
				<polyline style="fill:none;stroke:url(#SVGID_5_);stroke-width:12.1938;stroke-linecap:round;stroke-linejoin:round;stroke-miterlimit:10;" points="
				107.7,386 229.7,386 229.7,394.9 270.3,394.9 270.3,386 392.3,386 			"/>
		</g>
		<linearGradient id="SVGID_6_" gradientUnits="userSpaceOnUse" x1="250" y1="99" x2="250" y2="311.9852">
			<stop  offset="0" style="stop-color:#FFCC33"/>
			<stop  offset="0.4732" style="stop-color:#FFC935"/>
			<stop  offset="0.7643" style="stop-color:#FFC13C"/>
			<stop  offset="1" style="stop-color:#FFB347"/>
		</linearGradient>
		<path class="st12" d="M179.1,210.3c-14.3-12-23.2-30.2-22.6-50.5c1.1-32.7,27.5-59.4,60.2-60.8c31.7-1.4,58.5,20.7,64.5,50.3
			c2.9,10.6,8,18.2,18.3,27.7c5.2,4.7,10.7,8.2,16,10.8c-5,3.2-9.1,6.5-12.6,9.8c-5.2,4.9-8.9,9.6-11.6,13.6c-2.3,3.5-4,6.7-5.5,9.8
			c-3,6-5.7,11.7-12.4,19.5c-4.1,4.8-9.4,10.8-17.9,15.4c-15.7,8.6-30.9,6.1-30.9,6.5c0,0.5,23.2,6,43.1-5.7
			c8.8-5.2,11-10.2,24.4-25.2c3.4-3.8,6.7-7.3,9.8-10.6c3.4-3.5,6.7-6.7,9.6-9.5c3-2.9,5.8-5.4,8.1-7.5c0,0,0,0,0,0h0
			c0.3-0.2,0.6-0.4,0.9-0.6c7.4-5.1,16.2-8.1,25.8-8.3l-0.2,0.8l1.1-0.8c26,0,47.1,21.1,47.1,47.1c0,24.3-18.4,44.3-42,46.9l-23,23
			c-53.1-11.2-106.2-11.2-159.3,0l-22.8-22.8c-0.8,0-1.6,0.1-2.4,0.1c-22,0-39.8-17.8-39.8-39.8s17.8-39.8,39.8-39.8
			c3.8,0.3,8.9,1.1,14.5,3c1.2,0.4,2.4,0.8,3.6,1.3c0,0,0,0,0.1,0c1,0.4,2,0.8,3,1.3c17,8.1,18.3,18.9,31.7,26
			c19.9,10.6,44.8,1.4,44.7,0c0,0-12.2,0.9-26-2.4C200.8,235,179.1,210.3,179.1,210.3z"/>
	</g>
</g>
</svg>
