<?xml version="1.0" encoding="utf-8"?>
<!-- Generator: Adobe Illustrator 23.0.5, SVG Export Plug-In . SVG Version: 6.00 Build 0)  -->
<svg version="1.1" id="Capa_1" xmlns="http://www.w3.org/2000/svg" xmlns:xlink="http://www.w3.org/1999/xlink" x="0px" y="0px"
	 width="658.7px" height="482.7px" viewBox="0 0 658.7 482.7" style="enable-background:new 0 0 658.7 482.7;" xml:space="preserve"
	>
<style type="text/css">
	.st0{fill:#939393;}
	.st1{fill:#A8E063;}
	.st2{display:none;fill:#E6E6E6;}
	.st3{fill:#CCCCCC;}
	.st4{fill:#E6E6E6;}
</style>
<g>
	<path class="st0" d="M285.1,196.9c-9.5,0-18.5,4.4-24.2,12c-10.1-4.4-21.8,0.3-26.2,10.4c-1.1,2.5-1.6,5.2-1.6,7.9h82.3
		C315.4,210.4,301.8,196.9,285.1,196.9L285.1,196.9z"/>
	<path class="st1" d="M398.8,175.9H38.5c-10,0-18.2,8.1-18.2,18.2v270.5c0,10,8.1,18.2,18.2,18.2h360.3c10,0,18.2-8.1,18.2-18.2V194
		C417,184,408.9,175.9,398.8,175.9z M414.9,464.6c0,8.9-7.2,16-16,16H38.5c-8.9,0-16-7.2-16-16V194c0-8.9,7.2-16,16-16h360.3
		c8.9,0,16,7.2,16,16v270.6H414.9z"/>
	<path class="st2" d="M80.6,303.7c-3.5,3.6-6.9,7-10.3,10.4c-5,5-10,10-15,15c-3.9,3.9-7.9,3.9-11.8,0c-0.9-0.9-1.8-1.8-2.7-2.7
		c-3-3.2-3.1-7.5,0-10.6c8.2-8.3,16.4-16.5,24.7-24.7c0.4-0.4,0.9-0.7,1.5-1c-0.7-0.8-1.1-1.2-1.5-1.6c-8.2-8.2-16.4-16.4-24.6-24.6
		c-2.1-2.1-2.9-4.7-2-7.6c0.1-0.3,0.2-0.6,0.3-0.9c1.8-2.9,4.2-5.5,7.2-7.1c2.8-1.5,5.9-0.8,8.3,1.6c6,6,12.1,12,18.1,18.1
		c2.6,2.6,5.1,5.2,7.8,7.9c0.5-0.5,0.9-0.8,1.3-1.2c8.2-8.2,16.5-16.5,24.7-24.7c2.1-2.1,4.7-2.9,7.6-2c0.3,0.1,0.6,0.2,0.9,0.3
		c2.9,1.8,5.4,4.1,7.1,7.1c1.6,2.8,0.9,6-1.6,8.4c-6,6-12,12.1-18.1,18.1c-2.6,2.6-5.2,5.1-7.8,7.8c0.4,0.5,0.7,0.8,1,1.2
		c8.1,8.1,16.1,16.2,24.2,24.2c1.5,1.5,2.8,3.2,2.9,5.4c0.2,2.2-0.6,4.2-2.1,5.8c-1.1,1.1-2.2,2.2-3.2,3.3c-3.4,3.3-7.6,3.3-11,0
		c-8.2-8.2-16.4-16.4-24.6-24.6C81.6,304.6,81.2,304.2,80.6,303.7z"/>
	<path class="st3" d="M414.7,401.7L312.8,256.2c-0.4-0.6-0.9-1.1-1.5-1.5c-2.8-2-6.6-1.3-8.6,1.5l-60,85.7l-84.3-121.4
		c-0.5-0.7-1-1.2-1.6-1.6c-2.8-1.9-6.6-1.2-8.6,1.6l-35,50.4c0.6,0.5,1.2,1.1,1.8,1.6c1.7,1.6,1.8,3.7,0.4,5.2
		c-1.4,1.6-3.5,1.6-5.3-0.1c-0.3-0.3-0.6-0.6-1-0.9l-5.7,8.2c1.7,2.2,1.1,5-1.5,5.7c-0.9,0.3-1.7,0.2-2.4-0.1l-5.1,7.3
		c9.2,9.2,18.5,18.5,27.8,27.8c-1.8,2.1-3.7,4-5.8,5.8c-6.9-6.9-13.7-13.6-20.4-20.3c-3.1,9-9.2,13.6-19,11.8l-54.7,78.8l-2.1,3.1
		v22.5H417v-22.4L414.7,401.7z"/>
	<path class="st4" d="M107.5,452.8H44.4c-0.6,0-1.1-0.5-1.1-1.1s0.5-1.1,1.1-1.1h63.1c0.6,0,1.1,0.5,1.1,1.1
		C108.5,452.3,108,452.8,107.5,452.8L107.5,452.8L107.5,452.8z"/>
	<path class="st4" d="M202.6,452.8h-63.1c-0.6,0-1.1-0.5-1.1-1.1s0.5-1.1,1.1-1.1l0,0h63.1c0.6,0,1.1,0.5,1.1,1.1
		C203.7,452.3,203.2,452.8,202.6,452.8z"/>
	<path class="st4" d="M297.8,452.8h-63.1c-0.6,0-1.1-0.5-1.1-1.1s0.5-1.1,1.1-1.1l0,0h63.1c0.6,0,1.1,0.5,1.1,1.1
		S298.4,452.8,297.8,452.8z"/>
	<path class="st4" d="M392.9,452.8h-63.1c-0.6,0-1.1-0.5-1.1-1.1s0.5-1.1,1.1-1.1h63.1c0.6,0,1.1,0.5,1.1,1.1
		S393.5,452.8,392.9,452.8L392.9,452.8z"/>
	
		<ellipse transform="matrix(0.7414 -0.671 0.671 0.7414 27.8245 374.9746)" class="st1" cx="500.5" cy="151.4" rx="186" ry="115.5"/>
	<path class="st4" d="M356.3,425.8c-10.3-21.2-13.9-45.1-12.1-68.5c1.9-23.3,8.8-45.9,20.1-66.3c10.8-19.8,25.1-37.5,41.4-53.1
		c17.3-16.5,36.7-30.6,57.2-42.8c21.6-12.9,44.3-24,67.3-34.3c2.9-1.3,5.7-2.6,8.6-3.8c1.9-0.8,0.3-3.6-1.6-2.8
		c-23.4,10.3-46.7,21.2-68.9,33.9c-21.2,12.2-41.5,26.1-59.7,42.6c-16.9,15.4-32,32.9-43.7,52.6c-12.2,20.2-20,42.6-23.2,66
		c-3,23.5-0.7,48,8.2,70c1.1,2.7,2.3,5.3,3.5,8C354.4,429.2,357.2,427.6,356.3,425.8L356.3,425.8z"/>
	<path class="st4" d="M444.8,203.2c-1.1-17.5,0.3-35,3.9-52.2c3.6-17.1,9.6-33.7,17.6-49.3c4.5-8.7,9.7-17.1,15.5-25.1
		c1.2-1.7-1.6-3.3-2.8-1.6c-10.4,14.3-18.8,30-25.1,46.6c-6.2,16.6-10.2,34-11.9,51.6c-0.9,10-1.1,20-0.5,29.9
		C441.7,205.3,444.9,205.3,444.8,203.2L444.8,203.2z"/>
	<path class="st0" d="M220.3,247.5c-11.7,0-22.8,5.5-29.8,14.8c-12.5-5.4-26.9,0.4-32.3,12.9c-1.3,3.1-2,6.4-2,9.7h101.6
		C257.7,264.3,240.9,247.5,220.3,247.5L220.3,247.5z"/>
	<g>
		<path class="st1" d="M80.7,211.9c-43,0-77.9,34.9-77.9,77.9s34.9,77.9,77.9,77.9s77.9-34.9,77.9-77.9S123.7,211.9,80.7,211.9z
			 M116.5,331.3c-6.9-6.9-13.7-13.6-20.4-20.3c-3.1,9.1-9.3,13.7-19.2,11.8c-6.7-1.3-11.3-6.9-12-13.7c-0.4-4,0.6-7.7,3-11
			c2.4-3.2,5.6-5.1,9.7-6.1c-2.4-2.4-4.5-4.6-6.8-6.7c-0.3-0.3-1.2-0.3-1.6,0c-1.8,1.1-3.6,2.4-5.4,3.7c-0.5,0.4-1,0.9-1.5,1.3
			c-1.5,1-3.4,0.8-4.6-0.5c-1.2-1.3-1.3-3.3,0-4.6c1.7-1.7,3.7-3.1,5.6-4.6c0.5-0.4,1-0.7,1.7-1.1c-2.3-2.3-4.4-4.4-6.6-6.5
			c-0.3-0.2-1.2-0.2-1.5,0.1c-1.9,1.4-3.7,2.9-5.5,4.5c-2.1,1.8-4.1,2-5.6,0.3c-1.4-1.6-1.2-3.7,0.7-5.4c2.1-2,4.1-3.6,6.1-5.3
			c-4.4-4.4-8.9-8.8-13.4-13.3c1.6-1.9,3.4-3.6,5.3-5.3c2.9,2.8,5.6,5.5,8.3,8.2c1.8,1.8,3.7,3.7,5.5,5.5c0.7,0.8,1.4,0.9,2.4,0.5
			c8.5-3.8,17.4-5.1,26.6-3.9c10.7,1.4,20,6,27.8,13.6c1.7,1.6,1.8,3.7,0.4,5.2c-1.4,1.6-3.5,1.6-5.3-0.1c-6-5.7-12.9-9.6-21.1-11.2
			c-7.9-1.5-15.7-1-23.2,1.9c-0.2,0.1-0.3,0.1-0.5,0.2c-0.1,0.1-0.1,0.2-0.3,0.4c2.4,2.4,4.7,4.8,7.2,7.1c0.4,0.4,1.6,0.1,2.4,0
			c10.8-1.8,20.3,0.9,28.4,8.4c2.3,2.2,1.8,5.4-1,6.2c-1.6,0.5-2.8-0.2-4-1.2c-3.9-3.8-8.6-6-14-6.7c-1.6-0.2-3.2-0.2-4.7-0.2
			c14.3,14.3,28.6,28.6,43,43C120.6,327.6,118.6,329.6,116.5,331.3z"/>
		<path class="st2" d="M96.1,311c6.8,6.7,13.6,13.5,20.4,20.3c2.1-1.8,4-3.7,5.8-5.8c-14.5-14.5-28.8-28.8-43-43
			c1.5,0,3.1,0,4.7,0.2c5.4,0.7,10.1,2.9,14,6.7c1.2,1,2.4,1.7,4,1.2c2.8-0.8,3.3-4,1-6.2c-8.1-7.5-17.6-10.2-28.4-8.4
			c-0.8,0.1-2,0.4-2.4,0c-2.5-2.3-4.8-4.7-7.2-7.1c0.2-0.2,0.2-0.3,0.3-0.4c0.2-0.1,0.3-0.1,0.5-0.2c7.5-2.9,15.3-3.4,23.2-1.9
			c8.2,1.6,15.1,5.5,21.1,11.2c1.8,1.7,3.9,1.7,5.3,0.1c1.4-1.5,1.3-3.6-0.4-5.2c-7.8-7.6-17.1-12.2-27.8-13.6
			c-9.2-1.2-18.1,0.1-26.6,3.9c-1,0.4-1.7,0.3-2.4-0.5c-1.8-1.8-3.7-3.7-5.5-5.5c-2.7-2.7-5.4-5.4-8.3-8.2c-1.9,1.6-3.6,3.4-5.3,5.3
			c4.5,4.5,9,8.9,13.4,13.3c-2,1.7-4,3.3-6.1,5.3c-1.9,1.7-2.1,3.8-0.7,5.4c1.5,1.7,3.5,1.5,5.6-0.3c1.8-1.6,3.6-3.1,5.5-4.5
			c0.3-0.3,1.2-0.3,1.5-0.1c2.2,2.1,4.3,4.2,6.6,6.5c-0.7,0.4-1.2,0.7-1.7,1.1c-1.9,1.5-3.9,2.9-5.6,4.6c-1.3,1.3-1.2,3.3,0,4.6
			c1.2,1.3,3.1,1.5,4.6,0.5c0.5-0.4,1-0.9,1.5-1.3c1.8-1.3,3.6-2.6,5.4-3.7c0.4-0.3,1.3-0.3,1.6,0c2.3,2.1,4.4,4.3,6.8,6.7
			c-4.1,1-7.3,2.9-9.7,6.1c-2.4,3.3-3.4,7-3,11c0.7,6.8,5.3,12.4,12,13.7C86.8,324.7,93,320.1,96.1,311z"/>
		<path class="st1" d="M72,307.5c0,4.8,3.9,8.7,8.6,8.7c4.8,0,8.7-3.9,8.7-8.6c0-4.8-3.8-8.6-8.6-8.7
			C75.9,298.9,72.1,302.7,72,307.5z"/>
	</g>
</g>
</svg>
