<?xml version="1.0" encoding="utf-8"?>
<!-- Generator: Adobe Illustrator 23.0.5, SVG Export Plug-In . SVG Version: 6.00 Build 0)  -->
<svg version="1.1" xmlns="http://www.w3.org/2000/svg" xmlns:xlink="http://www.w3.org/1999/xlink" x="0px" y="0px" width="658.7px"
	 height="482.7px" viewBox="0 0 658.7 482.7" style="enable-background:new 0 0 658.7 482.7;" xml:space="preserve">
<style type="text/css">
	.st0{fill:#939393;}
	.st1{display:none;fill:#E6E6E6;}
	.st2{fill:#3B3B3B;}
	.st3{fill:#A8E063;}
</style>
<g id="Capa_2">
</g>
<g id="Capa_1">
	<path class="st0" d="M285.1,196.9c-9.5,0-18.5,4.4-24.2,12c-10.1-4.4-21.8,0.3-26.2,10.4c-1.1,2.5-1.6,5.2-1.6,7.9h82.3
		C315.4,210.4,301.8,196.9,285.1,196.9C285.1,196.9,285.1,196.9,285.1,196.9z"/>
	<path class="st0" d="M398.8,175.9H38.5c-10,0-18.2,8.1-18.2,18.2v270.5c0,10,8.1,18.2,18.2,18.2h360.3c10,0,18.2-8.1,18.2-18.2V194
		C417,184,408.9,175.9,398.8,175.9z M414.9,464.6c0,8.9-7.2,16-16,16H38.5c-8.9,0-16-7.2-16-16V194c0-8.9,7.2-16,16-16h360.3
		c8.9,0,16,7.2,16,16V464.6z"/>
	<path class="st1" d="M80.6,303.7c-3.5,3.6-6.9,7-10.3,10.4c-5,5-10,10-15,15c-3.9,3.9-7.9,3.9-11.8,0c-0.9-0.9-1.8-1.8-2.7-2.7
		c-3-3.2-3.1-7.5,0-10.6c8.2-8.3,16.4-16.5,24.7-24.7c0.4-0.4,0.9-0.7,1.5-1c-0.7-0.8-1.1-1.2-1.5-1.6c-8.2-8.2-16.4-16.4-24.6-24.6
		c-2.1-2.1-2.9-4.7-2-7.6c0.1-0.3,0.2-0.6,0.3-0.9c1.8-2.9,4.2-5.5,7.2-7.1c2.8-1.5,5.9-0.8,8.3,1.6c6,6,12.1,12,18.1,18.1
		c2.6,2.6,5.1,5.2,7.8,7.9c0.5-0.5,0.9-0.8,1.3-1.2c8.2-8.2,16.5-16.5,24.7-24.7c2.1-2.1,4.7-2.9,7.6-2c0.3,0.1,0.6,0.2,0.9,0.3
		c2.9,1.8,5.4,4.1,7.1,7.1c1.6,2.8,0.9,6-1.6,8.4c-6,6-12,12.1-18.1,18.1c-2.6,2.6-5.2,5.1-7.8,7.8c0.4,0.5,0.7,0.8,1,1.2
		c8.1,8.1,16.1,16.2,24.2,24.2c1.5,1.5,2.8,3.2,2.9,5.4c0.2,2.2-0.6,4.2-2.1,5.8c-1.1,1.1-2.2,2.2-3.2,3.3c-3.4,3.3-7.6,3.3-11,0
		c-8.2-8.2-16.4-16.4-24.6-24.6C81.6,304.6,81.2,304.2,80.6,303.7z"/>
	<path class="st2" d="M417,404.8v22.4H20.3v-22.5l2.1-3.1l125.8-181.1c2-2.8,5.8-3.5,8.6-1.6c0.6,0.4,1.1,0.9,1.6,1.6l84.3,121.4
		l60-85.7c2-2.8,5.8-3.5,8.6-1.5c0.6,0.4,1.1,0.9,1.5,1.5l101.9,145.5L417,404.8z"/>
	<path class="st0" d="M107.5,452.8H44.4c-0.6,0-1.1-0.5-1.1-1.1c0-0.6,0.5-1.1,1.1-1.1h63.1c0.6,0,1.1,0.5,1.1,1.1
		C108.5,452.3,108,452.8,107.5,452.8L107.5,452.8L107.5,452.8z"/>
	<path class="st0" d="M202.6,452.8h-63.1c-0.6,0-1.1-0.5-1.1-1.1c0-0.6,0.5-1.1,1.1-1.1l0,0h63.1c0.6,0,1.1,0.5,1.1,1.1
		C203.7,452.3,203.2,452.8,202.6,452.8z"/>
	<path class="st0" d="M297.8,452.8h-63.1c-0.6,0-1.1-0.5-1.1-1.1c0-0.6,0.5-1.1,1.1-1.1l0,0h63.1c0.6,0,1.1,0.5,1.1,1.1
		C298.9,452.3,298.4,452.8,297.8,452.8z"/>
	<path class="st0" d="M392.9,452.8h-63.1c-0.6,0-1.1-0.5-1.1-1.1c0-0.6,0.5-1.1,1.1-1.1h63.1c0.6,0,1.1,0.5,1.1,1.1
		C394,452.3,393.5,452.8,392.9,452.8L392.9,452.8z"/>
	
		<ellipse transform="matrix(0.7414 -0.671 0.671 0.7414 27.8131 374.9702)" class="st3" cx="500.5" cy="151.4" rx="186" ry="115.5"/>
	<path class="st0" d="M356.3,425.8c-10.3-21.2-13.9-45.1-12.1-68.5c1.9-23.3,8.8-45.9,20.1-66.3c10.8-19.8,25.1-37.5,41.4-53.1
		c17.3-16.5,36.7-30.6,57.2-42.8c21.6-12.9,44.3-24,67.3-34.3c2.9-1.3,5.7-2.6,8.6-3.8c1.9-0.8,0.3-3.6-1.6-2.8
		c-23.4,10.3-46.7,21.2-68.9,33.9c-21.2,12.2-41.5,26.1-59.7,42.6c-16.9,15.4-32,32.9-43.7,52.6c-12.2,20.2-20,42.6-23.2,66
		c-3,23.5-0.7,48,8.2,70c1.1,2.7,2.3,5.3,3.5,8C354.4,429.2,357.2,427.6,356.3,425.8L356.3,425.8z"/>
	<path class="st0" d="M444.8,203.2c-1.1-17.5,0.3-35,3.9-52.2c3.6-17.1,9.6-33.7,17.6-49.3c4.5-8.7,9.7-17.1,15.5-25.1
		c1.2-1.7-1.6-3.3-2.8-1.6c-10.4,14.3-18.8,30-25.1,46.6c-6.2,16.6-10.2,34-11.9,51.6c-0.9,10-1.1,20-0.5,29.9
		C441.7,205.3,444.9,205.3,444.8,203.2L444.8,203.2z"/>
	<path class="st0" d="M220.3,247.5c-11.7,0-22.8,5.5-29.8,14.8c-12.5-5.4-26.9,0.4-32.3,12.9c-1.3,3.1-2,6.4-2,9.7h101.6
		C257.7,264.3,240.9,247.5,220.3,247.5C220.3,247.5,220.3,247.5,220.3,247.5z"/>
	<g>
		
			<ellipse transform="matrix(0.1602 -0.9871 0.9871 0.1602 -218.2065 323.0174)" class="st2" cx="80.7" cy="289.7" rx="66.4" ry="66.4"/>
		<path class="st3" d="M80.7,234.9c30.3,0,54.9,24.6,54.9,54.9s-24.6,54.9-54.9,54.9S25.8,320,25.8,289.7S50.5,234.9,80.7,234.9
			 M80.7,211.9c-43,0-77.9,34.9-77.9,77.9s34.9,77.9,77.9,77.9s77.9-34.9,77.9-77.9S123.7,211.9,80.7,211.9L80.7,211.9z"/>
	</g>
	<g>
		<path class="st3" d="M42,246.2c3.8,3.7,7.3,7.2,10.7,10.6c1.8,1.8,3.7,3.7,5.5,5.5c0.7,0.8,1.4,0.9,2.4,0.5
			c8.5-3.8,17.4-5.1,26.6-3.9c10.7,1.4,20,6,27.8,13.6c1.7,1.6,1.8,3.7,0.4,5.2c-1.4,1.6-3.5,1.6-5.3-0.1c-6-5.7-12.9-9.6-21.1-11.2
			c-7.9-1.5-15.7-1-23.2,1.9c-0.2,0.1-0.3,0.1-0.5,0.2c-0.1,0.1-0.1,0.2-0.3,0.4c2.4,2.4,4.7,4.8,7.2,7.1c0.4,0.4,1.6,0.1,2.4,0
			c10.8-1.8,20.3,0.9,28.4,8.4c2.3,2.2,1.8,5.4-1,6.2c-1.6,0.5-2.8-0.2-4-1.2c-3.9-3.8-8.6-6-14-6.7c-1.6-0.2-3.2-0.2-4.7-0.2
			c15.1,15.1,30.2,30.2,45.5,45.5c10.5-12.3,15.8-26.9,13.9-43.4c-2.8-25.3-16.7-42.5-40.9-50.3C77.4,227.8,58.8,232.5,42,246.2z"/>
		<path class="st3" d="M52.6,267.2c-5.2-5.2-10.4-10.3-15.8-15.7C25.5,264.9,20.7,280.4,23,298c3.1,23.1,20.4,42.6,42.8,48.2
			c19.9,4.9,37.6,0.5,53.2-12.4c-7.7-7.7-15.3-15.3-22.9-22.8c-3.1,9.1-9.3,13.7-19.2,11.8c-6.7-1.3-11.3-6.9-12-13.7
			c-0.4-4,0.6-7.7,3-11c2.4-3.2,5.6-5.1,9.7-6.1c-2.4-2.4-4.5-4.6-6.8-6.7c-0.3-0.3-1.2-0.3-1.6,0c-1.8,1.1-3.6,2.4-5.4,3.7
			c-0.5,0.4-1,0.9-1.5,1.3c-1.5,1-3.4,0.8-4.6-0.5c-1.2-1.3-1.3-3.3,0-4.6c1.7-1.7,3.7-3.1,5.6-4.6c0.5-0.4,1-0.7,1.7-1.1
			c-2.3-2.3-4.4-4.4-6.6-6.5c-0.3-0.2-1.2-0.2-1.5,0.1c-1.9,1.4-3.7,2.9-5.5,4.5c-2.1,1.8-4.1,2-5.6,0.3c-1.4-1.6-1.2-3.7,0.7-5.4
			C48.6,270.5,50.6,268.9,52.6,267.2z"/>
		<path class="st3" d="M72,307.5c0,4.8,3.9,8.7,8.6,8.7c4.8,0,8.7-3.9,8.7-8.6c0-4.8-3.8-8.6-8.6-8.7
			C75.9,298.9,72.1,302.7,72,307.5z"/>
	</g>
</g>
</svg>
