<svg id="Nombre_del_proyecto" data-name="Nombre del proyecto" xmlns="http://www.w3.org/2000/svg" xmlns:xlink="http://www.w3.org/1999/xlink" viewBox="0 0 1966 500"><defs><style>.cls-1{fill:url(#Degradado_sin_nombre_11);}.cls-2{fill:url(#Degradado_sin_nombre_6);}.cls-3{fill:url(#Degradado_sin_nombre_7);}.cls-4{fill:url(#Degradado_sin_nombre_7-2);}.cls-5{fill:none;stroke-linecap:round;stroke-linejoin:round;stroke-width:12.19px;stroke:url(#Degradado_sin_nombre_3);}.cls-6{fill:url(#Degradado_sin_nombre_8);}.cls-7{font-size:125.41px;font-family:Montserrat-Regular, Montserrat;}.cls-11,.cls-7{fill:#fff;}.cls-8{letter-spacing:0em;}.cls-9{letter-spacing:-0.02em;}.cls-10{letter-spacing:-0.01em;}.cls-11{font-size:268.24px;font-family:Montserrat-Bold, Montserrat;font-weight:700;letter-spacing:0em;}.cls-12{letter-spacing:0em;}.cls-13{letter-spacing:0.01em;}.cls-14{letter-spacing:-0.03em;}.cls-15{fill:url(#Degradado_sin_nombre_4);}</style><linearGradient id="Degradado_sin_nombre_11" x1="257.15" y1="37.94" x2="257.15" y2="462.06" gradientUnits="userSpaceOnUse"><stop offset="0" stop-color="#2f2f2f"/><stop offset="0.53" stop-color="#292929"/><stop offset="1" stop-color="#1f1f1f"/></linearGradient><linearGradient id="Degradado_sin_nombre_6" x1="257.15" y1="487.34" x2="257.15" y2="12.66" gradientUnits="userSpaceOnUse"><stop offset="0" stop-color="#b8b8b8"/><stop offset="0.03" stop-color="#c1c1c1"/><stop offset="0.13" stop-color="#d8d8d8"/><stop offset="0.24" stop-color="#e9e9e9"/><stop offset="0.38" stop-color="#f6f6f6"/><stop offset="0.57" stop-color="#fdfdfd"/><stop offset="1" stop-color="#fff"/></linearGradient><linearGradient id="Degradado_sin_nombre_7" x1="329.5" y1="394.9" x2="329.5" y2="328.32" gradientUnits="userSpaceOnUse"><stop offset="0" stop-color="#b8b8b8"/><stop offset="0.02" stop-color="#bdbdbd"/><stop offset="0.13" stop-color="#d5d5d5"/><stop offset="0.26" stop-color="#e8e8e8"/><stop offset="0.41" stop-color="#f5f5f5"/><stop offset="0.61" stop-color="#fdfdfd"/><stop offset="1" stop-color="#fff"/></linearGradient><linearGradient id="Degradado_sin_nombre_7-2" x1="184.8" y1="394.9" x2="184.8" y2="328.32" xlink:href="#Degradado_sin_nombre_7"/><linearGradient id="Degradado_sin_nombre_3" x1="257.15" y1="379.86" x2="257.15" y2="401" gradientUnits="userSpaceOnUse"><stop offset="0" stop-color="#fc3"/><stop offset="1" stop-color="#ffb347"/></linearGradient><linearGradient id="Degradado_sin_nombre_8" x1="257.15" y1="99" x2="257.15" y2="311.99" gradientUnits="userSpaceOnUse"><stop offset="0" stop-color="#fc3"/><stop offset="0.47" stop-color="#ffc935"/><stop offset="0.76" stop-color="#ffc13c"/><stop offset="1" stop-color="#ffb347"/></linearGradient><linearGradient id="Degradado_sin_nombre_4" x1="1238.05" y1="282.17" x2="1238.05" y2="87.96" gradientUnits="userSpaceOnUse"><stop offset="0" stop-color="#b8b8b8"/><stop offset="0.11" stop-color="#c9c9c9"/><stop offset="0.3" stop-color="#e1e1e1"/><stop offset="0.5" stop-color="#f2f2f2"/><stop offset="0.73" stop-color="#fcfcfc"/><stop offset="1" stop-color="#fff"/></linearGradient></defs><title>R</title><g id="Oscuro_Horizontal" data-name="Oscuro Horizontal"><g id="Logo"><g id="Marco"><rect id="Fondo_del_marco" data-name="Fondo del marco" class="cls-1" x="45.09" y="37.94" width="424.12" height="424.12" rx="81.76"/><path id="Marco-2" data-name="Marco" class="cls-2" d="M387.45,37.94a81.76,81.76,0,0,1,81.76,81.76V380.3a81.76,81.76,0,0,1-81.76,81.76H126.85A81.75,81.75,0,0,1,45.09,380.3V119.7a81.75,81.75,0,0,1,81.76-81.76h260.6m0-25.28H126.85a107,107,0,0,0-107,107V380.3a107,107,0,0,0,107,107h260.6a107,107,0,0,0,107-107V119.7a107,107,0,0,0-107-107Z"/></g><path class="cls-3" d="M257.15,360s8.13-25.2,30.89-30.89,39,23.57,63.4,23.57,50.41-8.13,50.41-8.13L391.35,386H277.47v8.94H257.15Z"/><path class="cls-4" d="M257.15,360s-8.13-25.2-30.9-30.89-39,23.57-63.4,23.57-50.4-8.13-50.4-8.13L122.94,386H236.82v8.94h20.33Z"/><polyline class="cls-5" points="114.89 385.96 236.82 385.96 236.82 394.9 277.47 394.9 277.47 385.96 399.41 385.96"/><path class="cls-6" d="M186.27,210.35a63,63,0,1,1,102.12-61c2.9,10.6,8,18.24,18.34,27.67a66.65,66.65,0,0,0,16,10.79,89.94,89.94,0,0,0-12.57,9.75,75.21,75.21,0,0,0-11.56,13.6,93,93,0,0,0-5.51,9.76c-3,6-5.67,11.74-12.37,19.51-4.13,4.79-9.41,10.81-17.88,15.44-15.73,8.6-30.91,6.08-30.89,6.51s23.19,6,43.08-5.69c8.8-5.18,11-10.21,24.39-25.2,3.41-3.82,6.71-7.34,9.84-10.57,3.45-3.55,6.68-6.73,9.63-9.54s5.78-5.4,8.13-7.5c0,0,0,0,0,0h0l.91-.65a46.86,46.86,0,0,1,25.82-8.29l-.24.8,1.14-.81a47.15,47.15,0,0,1,5.16,94L336.81,312a380.64,380.64,0,0,0-159.33,0l-22.84-22.84c-.78.05-1.56.07-2.36.07a39.83,39.83,0,1,1,0-79.66,62.68,62.68,0,0,1,14.45,3c1.19.4,2.41.84,3.64,1.35l.06,0c1,.41,2,.85,3,1.33,17,8.12,18.31,18.91,31.7,26,19.92,10.56,44.76,1.37,44.71,0a96.42,96.42,0,0,1-26-2.44C207.91,235,186.27,210.35,186.27,210.35Z"/></g><g id="Textos"><text class="cls-7" transform="translate(583.39 416.2)">Ali<tspan class="cls-8" x="157.39" y="0">m</tspan><tspan x="290.7" y="0">énta</tspan><tspan class="cls-9" x="576.27" y="0">t</tspan><tspan x="624.8" y="0">e </tspan><tspan class="cls-10" x="733.41" y="0">f</tspan><tspan class="cls-8" x="774.67" y="0">á</tspan><tspan x="848.91" y="0">cil</tspan></text><text class="cls-11" transform="translate(533.39 278.95)">R<tspan class="cls-12" x="198.5" y="0">E</tspan><tspan class="cls-13" x="379.29" y="0">CE</tspan><tspan class="cls-14" x="758.58" y="0">T</tspan><tspan x="916.31" y="0">ARI</tspan></text><path class="cls-15" d="M675.26,279l-36.2-52.31h-40V279H555.65V91.18h81.26q24.95,0,43.32,8.31t28.29,23.61q9.91,15.28,9.92,36.21t-10.05,36.08q-10.07,15.15-28.57,23.2L721.93,279ZM664.27,135q-10.2-8.44-29.77-8.45H599.1V192h35.4q19.57,0,29.77-8.59t10.19-24.14Q674.46,143.48,664.27,135Z"/><path class="cls-15" d="M899.46,244.07V279H754.11V91.18H896v34.87H797.29v40.77h87.16v33.8H797.29v43.45Z"/><path class="cls-15" d="M972.81,269.69a93,93,0,0,1-36.47-34.6q-13.27-22.14-13.28-50t13.28-50a93.08,93.08,0,0,1,36.47-34.6Q996,87.95,1025,88q24.4,0,44.12,8.58a88.45,88.45,0,0,1,33.12,24.68L1074.32,147q-19-22-47.2-22-17.43,0-31.11,7.65a54.3,54.3,0,0,0-21.32,21.32q-7.65,13.68-7.64,31.12t7.64,31.12A54.24,54.24,0,0,0,996,237.5q13.68,7.65,31.11,7.65,28.16,0,47.2-22.27l27.89,25.75A86.9,86.9,0,0,1,1069,273.58q-19.86,8.58-44.25,8.59Q996,282.17,972.81,269.69Z"/><path class="cls-15" d="M1278.14,244.07V279H1132.78V91.18h141.87v34.87H1176v40.77h87.16v33.8H1176v43.45Z"/><path class="cls-15" d="M1353,126.58h-60.07V91.18h163.59v35.4h-60.07V279H1353Z"/><path class="cls-15" d="M1595.4,238.71h-87.16L1491.62,279H1447.1l83.67-187.77h42.91L1657.62,279H1612Zm-13.67-33L1552,133.83l-29.77,71.89Z"/><path class="cls-15" d="M1798.15,279,1762,226.64h-40V279h-43.45V91.18h81.26q24.95,0,43.31,8.31t28.3,23.61q9.91,15.28,9.92,36.21t-10.06,36.08q-10.05,15.15-28.56,23.2L1844.82,279Zm-11-143.92q-10.2-8.44-29.77-8.45H1722V192h35.4q19.58,0,29.77-8.59t10.19-24.14Q1797.35,143.48,1787.16,135Z"/><path class="cls-15" d="M1877,91.18h43.44V279H1877Z"/></g></g></svg>