<?xml version="1.0" encoding="utf-8"?>
<!-- Generator: Adobe Illustrator 23.0.5, SVG Export Plug-In . SVG Version: 6.00 Build 0)  -->
<svg version="1.1" xmlns="http://www.w3.org/2000/svg" xmlns:xlink="http://www.w3.org/1999/xlink" x="0px" y="0px" width="1966px"
	 height="500px" viewBox="0 0 1966 500" style="enable-background:new 0 0 1966 500;" xml:space="preserve">
<style type="text/css">
	.st0{fill:#2F2F2F;}
	.st1{fill:#FFFFFF;}
	.st2{fill:url(#SVGID_1_);}
	.st3{fill:url(#SVGID_2_);}
	.st4{fill:url(#SVGID_3_);}
	.st5{fill:url(#SVGID_4_);}
	.st6{fill:url(#SVGID_5_);}
	.st7{fill:url(#SVGID_6_);}
	.st8{fill:url(#SVGID_7_);}
	.st9{fill:url(#SVGID_8_);}
	.st10{fill:url(#SVGID_9_);}
	.st11{fill:url(#SVGID_10_);}
	.st12{fill:url(#SVGID_11_);}
	.st13{fill:url(#SVGID_12_);}
	.st14{fill:url(#SVGID_13_);}
	.st15{fill:url(#SVGID_14_);}
	.st16{fill:url(#SVGID_15_);}
	.st17{fill:url(#SVGID_16_);}
	.st18{fill:url(#SVGID_17_);}
	.st19{fill:url(#SVGID_18_);}
	.st20{fill:url(#SVGID_19_);}
	.st21{fill:url(#SVGID_20_);}
	.st22{fill:url(#SVGID_21_);}
	.st23{fill:url(#SVGID_22_);}
	.st24{fill:url(#SVGID_23_);}
	.st25{fill:url(#SVGID_24_);}
	.st26{display:none;}
	.st27{display:inline;fill:#FFFFFF;}
	.st28{fill:url(#SVGID_25_);}
	.st29{fill:url(#SVGID_26_);}
	.st30{fill:url(#SVGID_27_);}
	.st31{fill:url(#SVGID_28_);}
	.st32{fill:url(#SVGID_29_);}
	.st33{fill:url(#SVGID_30_);}
	.st34{fill:url(#SVGID_31_);}
	.st35{fill:url(#SVGID_32_);}
	.st36{fill:url(#SVGID_33_);}
	.st37{fill:url(#SVGID_34_);}
	.st38{fill:url(#SVGID_35_);}
	.st39{fill:url(#SVGID_36_);}
	.st40{fill:url(#SVGID_37_);}
	.st41{fill:url(#SVGID_38_);}
	.st42{fill:url(#SVGID_39_);}
	.st43{fill:#999999;}
	.st44{fill:#1F1F1F;}
	.st45{fill:url(#SVGID_40_);}
	.st46{fill:#B8B8B8;}
	.st47{fill:url(#SVGID_41_);}
	.st48{fill:#AE3140;}
	.st49{fill:#CE493D;}
	.st50{fill:url(#SVGID_42_);}
	.st51{fill:url(#SVGID_43_);}
	.st52{fill:url(#SVGID_44_);}
	.st53{fill-rule:evenodd;clip-rule:evenodd;fill:url(#SVGID_45_);}
	.st54{fill:url(#SVGID_46_);}
	.st55{fill:url(#SVGID_47_);}
	.st56{fill:url(#SVGID_48_);}
	.st57{fill-rule:evenodd;clip-rule:evenodd;fill:url(#SVGID_49_);}
	.st58{fill:url(#SVGID_50_);}
	.st59{fill:url(#SVGID_51_);}
	.st60{fill:url(#SVGID_52_);}
	.st61{fill-rule:evenodd;clip-rule:evenodd;fill:url(#SVGID_53_);}
	.st62{fill:url(#SVGID_54_);}
	.st63{fill:url(#SVGID_55_);}
	.st64{fill:url(#SVGID_56_);}
	.st65{fill-rule:evenodd;clip-rule:evenodd;fill:url(#SVGID_57_);}
	.st66{fill:url(#SVGID_58_);}
	.st67{fill:url(#SVGID_59_);}
	.st68{fill:url(#SVGID_60_);}
	.st69{fill:url(#SVGID_61_);}
	.st70{fill:url(#SVGID_62_);}
	.st71{fill:url(#SVGID_63_);}
	.st72{fill:url(#SVGID_64_);}
	.st73{fill:url(#SVGID_65_);}
	.st74{fill:url(#SVGID_66_);}
	.st75{fill:url(#SVGID_67_);}
	.st76{fill:url(#SVGID_68_);}
	.st77{fill:url(#SVGID_69_);}
	.st78{fill:url(#SVGID_70_);}
	.st79{fill:url(#SVGID_71_);}
	.st80{fill:url(#SVGID_72_);}
	.st81{fill:url(#SVGID_73_);}
	.st82{fill-rule:evenodd;clip-rule:evenodd;fill:url(#SVGID_74_);}
	.st83{fill:url(#SVGID_75_);}
	.st84{fill:url(#SVGID_76_);}
	.st85{fill:url(#SVGID_77_);}
	.st86{fill:url(#SVGID_78_);}
	.st87{fill:#74B452;}
	.st88{fill:#DCE166;}
	.st89{fill:url(#SVGID_79_);}
	.st90{fill:#B4FF3C;}
	.st91{display:inline;}
	.st92{fill:url(#SVGID_80_);}
	.st93{fill:url(#SVGID_81_);}
	.st94{fill:url(#SVGID_82_);}
	.st95{fill:url(#SVGID_83_);}
	.st96{fill:url(#SVGID_84_);}
	.st97{fill:url(#SVGID_85_);}
	.st98{fill:url(#SVGID_86_);}
	.st99{fill:url(#SVGID_87_);}
	.st100{fill:url(#SVGID_88_);}
	.st101{fill:url(#SVGID_89_);}
	.st102{fill:url(#SVGID_90_);}
	.st103{fill:url(#SVGID_91_);}
	.st104{fill:url(#SVGID_92_);}
	.st105{fill:url(#SVGID_93_);}
	.st106{fill:url(#SVGID_94_);}
	.st107{fill:url(#SVGID_95_);}
	.st108{fill:url(#SVGID_96_);}
	.st109{fill:url(#SVGID_97_);}
	.st110{fill:url(#SVGID_98_);}
	.st111{fill:url(#SVGID_99_);}
	.st112{fill:url(#SVGID_100_);}
	.st113{fill:url(#SVGID_101_);}
	.st114{fill:url(#SVGID_102_);}
	.st115{fill:url(#SVGID_103_);}
	.st116{fill:url(#SVGID_104_);}
	.st117{fill:url(#SVGID_105_);}
	.st118{fill:url(#SVGID_106_);}
	.st119{fill:url(#SVGID_107_);}
	.st120{fill:url(#SVGID_108_);}
	.st121{fill:url(#SVGID_109_);}
	.st122{fill:url(#SVGID_110_);}
	.st123{fill:url(#SVGID_111_);}
	.st124{fill:url(#SVGID_112_);}
	.st125{fill:url(#SVGID_113_);}
	.st126{fill:url(#SVGID_114_);}
	.st127{fill:url(#SVGID_115_);}
	.st128{fill:url(#SVGID_116_);}
	.st129{fill:url(#SVGID_117_);}
	.st130{fill:url(#SVGID_118_);}
	.st131{fill:url(#SVGID_119_);}
	.st132{fill:url(#SVGID_120_);}
	.st133{fill:url(#SVGID_121_);}
	.st134{fill:url(#SVGID_122_);}
	.st135{fill:url(#SVGID_123_);}
	.st136{fill-rule:evenodd;clip-rule:evenodd;fill:url(#SVGID_124_);}
	.st137{fill:url(#SVGID_125_);}
	.st138{fill:url(#SVGID_126_);}
	.st139{fill:url(#SVGID_127_);}
	.st140{fill-rule:evenodd;clip-rule:evenodd;fill:url(#SVGID_128_);}
	.st141{fill:url(#SVGID_129_);}
	.st142{fill:url(#SVGID_130_);}
	.st143{fill:url(#SVGID_131_);}
	.st144{fill-rule:evenodd;clip-rule:evenodd;fill:url(#SVGID_132_);}
	.st145{fill:url(#SVGID_133_);}
	.st146{fill:url(#SVGID_134_);}
	.st147{fill:url(#SVGID_135_);}
	.st148{fill-rule:evenodd;clip-rule:evenodd;fill:url(#SVGID_136_);}
	.st149{fill:url(#SVGID_137_);}
	.st150{fill:url(#SVGID_138_);}
	.st151{fill:url(#SVGID_139_);}
	.st152{fill:url(#SVGID_140_);}
	.st153{fill:url(#SVGID_141_);}
	.st154{fill:url(#SVGID_142_);}
	.st155{fill:url(#SVGID_143_);}
	.st156{fill:url(#SVGID_144_);}
	.st157{fill:url(#SVGID_145_);}
	.st158{fill:url(#SVGID_146_);}
	.st159{fill:url(#SVGID_147_);}
	.st160{fill:url(#SVGID_148_);}
	.st161{fill:url(#SVGID_149_);}
	.st162{fill:url(#SVGID_150_);}
	.st163{fill:url(#SVGID_151_);}
	.st164{fill:url(#SVGID_152_);}
	.st165{fill-rule:evenodd;clip-rule:evenodd;fill:url(#SVGID_153_);}
	.st166{fill:url(#SVGID_154_);}
	.st167{fill:url(#SVGID_155_);}
	.st168{fill:url(#SVGID_156_);}
	.st169{fill:url(#SVGID_157_);}
	.st170{fill:url(#SVGID_158_);}
	.st171{fill:url(#SVGID_159_);}
	.st172{fill:url(#SVGID_160_);}
	.st173{fill:url(#SVGID_161_);}
	.st174{fill:url(#SVGID_162_);}
	.st175{fill:url(#SVGID_163_);}
	.st176{fill:url(#SVGID_164_);}
	.st177{fill:url(#SVGID_165_);}
	.st178{fill:url(#SVGID_166_);}
	.st179{fill:url(#SVGID_167_);}
	.st180{fill:url(#SVGID_168_);}
	.st181{fill:url(#SVGID_169_);}
	.st182{fill:url(#SVGID_170_);}
	.st183{fill:url(#SVGID_171_);}
	.st184{fill:url(#SVGID_172_);}
	.st185{fill:url(#SVGID_173_);}
	.st186{fill:url(#SVGID_174_);}
	.st187{fill:url(#SVGID_175_);}
	.st188{fill:url(#SVGID_176_);}
	.st189{fill:url(#SVGID_177_);}
	.st190{fill:url(#SVGID_178_);}
	.st191{fill:url(#SVGID_179_);}
	.st192{fill:url(#SVGID_180_);}
	.st193{fill:url(#SVGID_181_);}
	.st194{fill:url(#SVGID_182_);}
	.st195{fill:url(#SVGID_183_);}
	.st196{fill:url(#SVGID_184_);}
	.st197{fill:url(#SVGID_185_);}
	.st198{fill:url(#SVGID_186_);}
	.st199{fill:url(#SVGID_187_);}
	.st200{fill:url(#SVGID_188_);}
	.st201{fill:url(#SVGID_189_);}
	.st202{fill:url(#SVGID_190_);}
	.st203{fill:url(#SVGID_191_);}
	.st204{fill:url(#SVGID_192_);}
	.st205{fill:url(#SVGID_193_);}
	.st206{fill:url(#SVGID_194_);}
	.st207{fill:url(#SVGID_195_);}
	.st208{fill:url(#SVGID_196_);}
	.st209{fill:url(#SVGID_197_);}
	.st210{fill:url(#SVGID_198_);}
	.st211{fill:url(#SVGID_199_);}
	.st212{fill:url(#SVGID_200_);}
	.st213{fill:#D75F18;}
	.st214{fill:#E3C438;}
	.st215{fill:url(#SVGID_201_);}
</style>
<g id="Capa_5">
</g>
<g id="Capa_4">
</g>
<g id="The_Internet_Index">
</g>
<g id="Fun_Fact_Web">
	<g id="Fondos_1_" class="st26">
		<rect x="0" class="st91" width="1965.82" height="500"/>
	</g>
	<g id="Oscuro_Horizontal_1_">
		<g id="Logo_Principal_15_">
			<g>
				<linearGradient id="SVGID_1_" gradientUnits="userSpaceOnUse" x1="257.1459" y1="37.9396" x2="257.1459" y2="462.0604">
					<stop  offset="0" style="stop-color:#2F2F2F"/>
					<stop  offset="0.5303" style="stop-color:#292929"/>
					<stop  offset="1" style="stop-color:#1F1F1F"/>
				</linearGradient>
				<path class="st2" d="M387.45,37.94h-260.6c-45.15,0-81.76,36.61-81.76,81.76v260.6c0,45.15,36.61,81.76,81.76,81.76h260.6
					c45.15,0,81.76-36.61,81.76-81.76V119.7C469.21,74.54,432.6,37.94,387.45,37.94z"/>
				<linearGradient id="SVGID_2_" gradientUnits="userSpaceOnUse" x1="257.1459" y1="487.3403" x2="257.1459" y2="12.6597">
					<stop  offset="0" style="stop-color:#B8B8B8"/>
					<stop  offset="0.0308" style="stop-color:#C1C1C1"/>
					<stop  offset="0.1291" style="stop-color:#D8D8D8"/>
					<stop  offset="0.243" style="stop-color:#E9E9E9"/>
					<stop  offset="0.3803" style="stop-color:#F6F6F6"/>
					<stop  offset="0.5651" style="stop-color:#FDFDFD"/>
					<stop  offset="1" style="stop-color:#FFFFFF"/>
				</linearGradient>
				<path class="st3" d="M387.45,37.94c45.15,0,81.76,36.61,81.76,81.76v260.6c0,45.15-36.61,81.76-81.76,81.76h-260.6
					c-45.15,0-81.76-36.61-81.76-81.76V119.7c0-45.15,36.61-81.76,81.76-81.76H387.45 M387.45,12.66h-260.6
					c-28.59,0-55.47,11.13-75.69,31.35c-20.22,20.22-31.35,47.1-31.35,75.69v260.6c0,28.59,11.13,55.47,31.35,75.69
					c20.22,20.22,47.1,31.35,75.69,31.35h260.6c28.59,0,55.47-11.13,75.69-31.35s31.35-47.1,31.35-75.69V119.7
					c0-28.59-11.13-55.47-31.35-75.69S416.04,12.66,387.45,12.66L387.45,12.66z"/>
			</g>
			<g>
				
					<linearGradient id="SVGID_3_" gradientUnits="userSpaceOnUse" x1="93.3293" y1="225.7508" x2="337.6097" y2="225.7508" gradientTransform="matrix(1 0 0 1 58.5673 0)">
					<stop  offset="1.858442e-07" style="stop-color:#74B452"/>
					<stop  offset="1" style="stop-color:#DCE166"/>
				</linearGradient>
				<path style="fill-rule:evenodd;clip-rule:evenodd;fill:url(#SVGID_3_);" d="M274.04,103.61c-67.35,0-122.14,54.79-122.14,122.14
					c0,67.35,54.79,122.14,122.14,122.14c67.35,0,122.14-54.79,122.14-122.14C396.18,158.4,341.39,103.61,274.04,103.61z
					 M274.04,301.88c-41.98,0-76.13-34.15-76.13-76.13c0-41.98,34.15-76.13,76.13-76.13c41.98,0,76.13,34.15,76.13,76.13
					C350.17,267.73,316.02,301.88,274.04,301.88z"/>
				
					<linearGradient id="SVGID_4_" gradientUnits="userSpaceOnUse" x1="12094.4561" y1="351.3665" x2="12184.5498" y2="351.3665" gradientTransform="matrix(-1 0 0 1 12288.25 0)">
					<stop  offset="0" style="stop-color:#B8B8B8"/>
					<stop  offset="0.1063" style="stop-color:#C9C9C9"/>
					<stop  offset="0.2997" style="stop-color:#E1E1E1"/>
					<stop  offset="0.5048" style="stop-color:#F2F2F2"/>
					<stop  offset="0.7275" style="stop-color:#FCFCFC"/>
					<stop  offset="1" style="stop-color:#FFFFFF"/>
				</linearGradient>
				<path class="st5" d="M109.68,361.52l55.18-55.18c8.14,11,17.91,20.73,28.93,28.84l-55.22,55.22c-3.99,3.99-9.22,5.98-14.44,5.98
					s-10.45-1.99-14.44-5.98C101.71,382.43,101.71,369.5,109.68,361.52z"/>
			</g>
		</g>
		<g id="Textos_1_">
			<g>
				<path class="st1" d="M652.73,392.75h-48.9L593.3,416.2h-9.65l40.12-87.79h9.15l40.12,87.79h-9.78L652.73,392.75z M649.35,385.22
					l-21.06-47.16l-21.07,47.16H649.35z"/>
				<path class="st1" d="M685.71,323.14h8.9v93.06h-8.9V323.14z"/>
				<path class="st1" d="M780.5,350.23v57.94c0,11.2-2.74,19.5-8.21,24.89c-5.48,5.39-13.73,8.09-24.76,8.09
					c-6.1,0-11.89-0.9-17.37-2.7c-5.48-1.8-9.93-4.29-13.35-7.46l4.51-6.77c3.18,2.84,7.04,5.06,11.6,6.65
					c4.55,1.59,9.34,2.38,14.36,2.38c8.36,0,14.5-1.94,18.43-5.83c3.93-3.89,5.89-9.93,5.89-18.12v-8.4
					c-2.76,4.18-6.38,7.36-10.85,9.53c-4.47,2.18-9.43,3.26-14.86,3.26c-6.19,0-11.81-1.36-16.86-4.08
					c-5.06-2.72-9.03-6.52-11.91-11.41s-4.33-10.43-4.33-16.62c0-6.19,1.44-11.7,4.33-16.55c2.88-4.85,6.83-8.61,11.85-11.29
					c5.02-2.68,10.66-4.01,16.93-4.01c5.6,0,10.66,1.13,15.17,3.39c4.51,2.26,8.15,5.52,10.91,9.78v-12.67H780.5z M759.69,402.72
					c3.84-2.05,6.83-4.91,8.97-8.59c2.13-3.68,3.2-7.86,3.2-12.54c0-4.68-1.07-8.84-3.2-12.48c-2.13-3.64-5.1-6.48-8.9-8.53
					c-3.8-2.05-8.13-3.07-12.98-3.07c-4.76,0-9.05,1-12.85,3.01c-3.8,2.01-6.77,4.85-8.9,8.53c-2.13,3.68-3.2,7.86-3.2,12.54
					c0,4.68,1.07,8.86,3.2,12.54c2.13,3.68,5.1,6.54,8.9,8.59c3.8,2.05,8.09,3.07,12.85,3.07S755.84,404.77,759.69,402.72z"/>
				<path class="st1" d="M815.23,412.5c-5.1-2.88-9.11-6.88-12.04-11.98c-2.93-5.1-4.39-10.87-4.39-17.31
					c0-6.44,1.46-12.21,4.39-17.31c2.92-5.1,6.94-9.07,12.04-11.91c5.1-2.84,10.82-4.26,17.18-4.26c6.35,0,12.08,1.42,17.18,4.26
					c5.1,2.84,9.09,6.82,11.97,11.91c2.88,5.1,4.33,10.87,4.33,17.31c0,6.44-1.44,12.21-4.33,17.31c-2.88,5.1-6.88,9.09-11.97,11.98
					c-5.1,2.88-10.83,4.33-17.18,4.33C826.05,416.83,820.33,415.39,815.23,412.5z M845.01,405.73c3.72-2.13,6.62-5.16,8.71-9.09
					c2.09-3.93,3.13-8.4,3.13-13.42c0-5.02-1.05-9.49-3.13-13.42c-2.09-3.93-5-6.96-8.71-9.09c-3.72-2.13-7.92-3.2-12.6-3.2
					c-4.68,0-8.88,1.07-12.6,3.2c-3.72,2.13-6.65,5.16-8.78,9.09c-2.13,3.93-3.2,8.4-3.2,13.42c0,5.02,1.07,9.49,3.2,13.42
					c2.13,3.93,5.06,6.96,8.78,9.09c3.72,2.13,7.92,3.2,12.6,3.2C837.09,408.93,841.29,407.86,845.01,405.73z"/>
				<path class="st1" d="M970.27,356.94c4.89,4.81,7.33,11.81,7.33,21.01v38.25h-8.9v-37.37c0-6.85-1.71-12.08-5.14-15.68
					c-3.43-3.59-8.32-5.39-14.67-5.39c-7.11,0-12.73,2.11-16.86,6.33c-4.14,4.22-6.21,10.05-6.21,17.5v34.61h-8.9v-65.97h8.53v12.17
					c2.42-4.01,5.79-7.13,10.09-9.34c4.3-2.21,9.3-3.32,14.98-3.32C958.8,349.73,965.38,352.14,970.27,356.94z"/>
				<path class="st1" d="M1061.24,350.23v65.97h-8.53v-12.04c-2.34,4.01-5.56,7.13-9.65,9.34c-4.1,2.22-8.78,3.32-14.04,3.32
					c-8.61,0-15.4-2.4-20.37-7.21c-4.97-4.81-7.46-11.85-7.46-21.13v-38.25h8.9v37.37c0,6.94,1.71,12.21,5.14,15.8
					c3.43,3.6,8.32,5.39,14.67,5.39c6.94,0,12.41-2.11,16.43-6.33c4.01-4.22,6.02-10.1,6.02-17.62v-34.61H1061.24z"/>
				<path class="st1" d="M1143.62,385.98h-55.17c0.5,6.86,3.13,12.4,7.9,16.62c4.76,4.22,10.78,6.33,18.06,6.33
					c4.09,0,7.86-0.73,11.29-2.19c3.43-1.46,6.39-3.62,8.9-6.46l5.02,5.77c-2.93,3.51-6.58,6.19-10.97,8.03
					c-4.39,1.84-9.22,2.76-14.48,2.76c-6.77,0-12.77-1.44-17.99-4.33c-5.23-2.88-9.3-6.88-12.23-11.98
					c-2.93-5.1-4.39-10.87-4.39-17.31c0-6.44,1.4-12.21,4.2-17.31c2.8-5.1,6.65-9.07,11.54-11.91c4.89-2.84,10.39-4.26,16.49-4.26
					c6.1,0,11.58,1.42,16.43,4.26c4.85,2.84,8.65,6.79,11.41,11.85c2.76,5.06,4.14,10.85,4.14,17.37L1143.62,385.98z
					 M1095.78,363.46c-4.31,4.06-6.75,9.34-7.34,15.86h46.77c-0.59-6.52-3.03-11.81-7.33-15.86c-4.31-4.05-9.68-6.08-16.11-6.08
					C1105.41,357.38,1100.08,359.41,1095.78,363.46z"/>
				<path class="st1" d="M1216.09,350.23l-29.34,65.97h-9.15l-29.22-65.97h9.28l24.7,56.19l24.95-56.19H1216.09z"/>
				<path class="st1" d="M1236.52,412.5c-5.1-2.88-9.11-6.88-12.04-11.98c-2.93-5.1-4.39-10.87-4.39-17.31
					c0-6.44,1.46-12.21,4.39-17.31c2.92-5.1,6.94-9.07,12.04-11.91c5.1-2.84,10.82-4.26,17.18-4.26c6.35,0,12.08,1.42,17.18,4.26
					c5.1,2.84,9.09,6.82,11.97,11.91c2.88,5.1,4.33,10.87,4.33,17.31c0,6.44-1.44,12.21-4.33,17.31c-2.88,5.1-6.88,9.09-11.97,11.98
					c-5.1,2.88-10.83,4.33-17.18,4.33C1247.35,416.83,1241.62,415.39,1236.52,412.5z M1266.3,405.73c3.72-2.13,6.62-5.16,8.71-9.09
					c2.09-3.93,3.13-8.4,3.13-13.42c0-5.02-1.05-9.49-3.13-13.42c-2.09-3.93-5-6.96-8.71-9.09c-3.72-2.13-7.92-3.2-12.6-3.2
					c-4.68,0-8.88,1.07-12.6,3.2c-3.72,2.13-6.65,5.16-8.78,9.09c-2.13,3.93-3.2,8.4-3.2,13.42c0,5.02,1.07,9.49,3.2,13.42
					c2.13,3.93,5.06,6.96,8.78,9.09c3.72,2.13,7.92,3.2,12.6,3.2C1258.38,408.93,1262.58,407.86,1266.3,405.73z"/>
				<path class="st1" d="M1348.06,412.56c-5.14-2.84-9.17-6.83-12.1-11.98c-2.93-5.14-4.39-10.93-4.39-17.37
					c0-6.44,1.46-12.21,4.39-17.31c2.92-5.1,6.96-9.07,12.1-11.91c5.14-2.84,10.97-4.26,17.49-4.26c5.68,0,10.76,1.11,15.23,3.32
					c4.47,2.22,8,5.46,10.59,9.72l-6.65,4.52c-2.17-3.26-4.93-5.71-8.28-7.34c-3.34-1.63-6.98-2.45-10.91-2.45
					c-4.76,0-9.05,1.07-12.85,3.2c-3.8,2.13-6.77,5.16-8.9,9.09c-2.13,3.93-3.2,8.4-3.2,13.42c0,5.1,1.07,9.59,3.2,13.48
					c2.13,3.89,5.1,6.9,8.9,9.03c3.8,2.13,8.09,3.2,12.85,3.2c3.93,0,7.56-0.79,10.91-2.38c3.34-1.59,6.1-4.01,8.28-7.27l6.65,4.51
					c-2.59,4.26-6.14,7.51-10.66,9.72c-4.51,2.22-9.57,3.32-15.17,3.32C1359.03,416.83,1353.2,415.41,1348.06,412.56z"/>
				<path class="st1" d="M1451.69,356.19c4.6,4.31,6.9,10.68,6.9,19.13v40.88h-8.53v-10.28c-2.01,3.43-4.95,6.1-8.84,8.03
					c-3.89,1.92-8.51,2.88-13.86,2.88c-7.36,0-13.21-1.76-17.55-5.27c-4.35-3.51-6.52-8.15-6.52-13.92c0-5.6,2.03-10.12,6.08-13.54
					c4.05-3.43,10.51-5.14,19.37-5.14h20.94v-4.01c0-5.69-1.59-10.01-4.76-12.98c-3.18-2.97-7.82-4.45-13.92-4.45
					c-4.18,0-8.19,0.69-12.04,2.07c-3.85,1.38-7.15,3.28-9.91,5.71l-4.01-6.65c3.34-2.84,7.36-5.04,12.04-6.58
					c4.68-1.55,9.61-2.32,14.8-2.32C1440.48,349.73,1447.09,351.89,1451.69,356.19z M1441.66,406.36c3.59-2.3,6.27-5.62,8.02-9.97
					V385.6h-20.69c-11.29,0-16.93,3.93-16.93,11.79c0,3.85,1.46,6.88,4.39,9.09c2.93,2.22,7.02,3.32,12.29,3.32
					C1433.76,409.81,1438.06,408.66,1441.66,406.36z"/>
				<path class="st1" d="M1543.22,323.14v93.06h-8.53v-13.04c-2.68,4.43-6.21,7.82-10.59,10.16c-4.39,2.34-9.34,3.51-14.86,3.51
					c-6.19,0-11.79-1.42-16.8-4.26c-5.02-2.84-8.95-6.81-11.79-11.91c-2.84-5.1-4.26-10.91-4.26-17.43s1.42-12.33,4.26-17.43
					c2.84-5.1,6.77-9.05,11.79-11.85c5.02-2.8,10.61-4.2,16.8-4.2c5.35,0,10.18,1.11,14.48,3.32c4.3,2.22,7.84,5.46,10.59,9.72
					v-39.63H1543.22z M1522.47,405.73c3.72-2.13,6.65-5.16,8.78-9.09c2.13-3.93,3.2-8.4,3.2-13.42c0-5.02-1.07-9.49-3.2-13.42
					c-2.13-3.93-5.06-6.96-8.78-9.09c-3.72-2.13-7.88-3.2-12.48-3.2c-4.68,0-8.88,1.07-12.6,3.2c-3.72,2.13-6.65,5.16-8.78,9.09
					c-2.13,3.93-3.2,8.4-3.2,13.42c0,5.02,1.07,9.49,3.2,13.42c2.13,3.93,5.06,6.96,8.78,9.09c3.72,2.13,7.92,3.2,12.6,3.2
					C1514.59,408.93,1518.75,407.86,1522.47,405.73z"/>
				<path class="st1" d="M1610.93,356.19c4.6,4.31,6.9,10.68,6.9,19.13v40.88h-8.53v-10.28c-2.01,3.43-4.95,6.1-8.84,8.03
					c-3.89,1.92-8.51,2.88-13.86,2.88c-7.36,0-13.21-1.76-17.55-5.27c-4.35-3.51-6.52-8.15-6.52-13.92c0-5.6,2.03-10.12,6.08-13.54
					c4.05-3.43,10.51-5.14,19.37-5.14h20.94v-4.01c0-5.69-1.59-10.01-4.76-12.98c-3.18-2.97-7.82-4.45-13.92-4.45
					c-4.18,0-8.19,0.69-12.04,2.07c-3.85,1.38-7.15,3.28-9.91,5.71l-4.01-6.65c3.34-2.84,7.36-5.04,12.04-6.58
					c4.68-1.55,9.61-2.32,14.8-2.32C1599.72,349.73,1606.33,351.89,1610.93,356.19z M1600.9,406.36c3.59-2.3,6.27-5.62,8.02-9.97
					V385.6h-20.69c-11.29,0-16.93,3.93-16.93,11.79c0,3.85,1.46,6.88,4.39,9.09c2.93,2.22,7.02,3.32,12.29,3.32
					C1593,409.81,1597.3,408.66,1600.9,406.36z"/>
				<path class="st1" d="M1735.06,323.14v93.06h-8.53v-13.04c-2.68,4.43-6.21,7.82-10.59,10.16c-4.39,2.34-9.34,3.51-14.86,3.51
					c-6.19,0-11.79-1.42-16.8-4.26c-5.02-2.84-8.95-6.81-11.79-11.91c-2.84-5.1-4.26-10.91-4.26-17.43s1.42-12.33,4.26-17.43
					c2.84-5.1,6.77-9.05,11.79-11.85c5.02-2.8,10.61-4.2,16.8-4.2c5.35,0,10.18,1.11,14.48,3.32c4.3,2.22,7.84,5.46,10.59,9.72
					v-39.63H1735.06z M1714.31,405.73c3.72-2.13,6.65-5.16,8.78-9.09c2.13-3.93,3.2-8.4,3.2-13.42c0-5.02-1.07-9.49-3.2-13.42
					c-2.13-3.93-5.06-6.96-8.78-9.09c-3.72-2.13-7.88-3.2-12.48-3.2c-4.68,0-8.88,1.07-12.6,3.2c-3.72,2.13-6.65,5.16-8.78,9.09
					c-2.13,3.93-3.2,8.4-3.2,13.42c0,5.02,1.07,9.49,3.2,13.42c2.13,3.93,5.06,6.96,8.78,9.09c3.72,2.13,7.92,3.2,12.6,3.2
					C1706.43,408.93,1710.59,407.86,1714.31,405.73z"/>
				<path class="st1" d="M1773.43,324.4h11.91l-20.31,15.55h-8.78L1773.43,324.4z M1759.88,350.23h8.9v65.97h-8.9V350.23z"/>
				<path class="st1" d="M1836.5,356.19c4.6,4.31,6.9,10.68,6.9,19.13v40.88h-8.53v-10.28c-2.01,3.43-4.95,6.1-8.84,8.03
					c-3.89,1.92-8.51,2.88-13.86,2.88c-7.36,0-13.21-1.76-17.55-5.27c-4.35-3.51-6.52-8.15-6.52-13.92c0-5.6,2.03-10.12,6.08-13.54
					c4.05-3.43,10.51-5.14,19.37-5.14h20.94v-4.01c0-5.69-1.59-10.01-4.76-12.98c-3.18-2.97-7.82-4.45-13.92-4.45
					c-4.18,0-8.19,0.69-12.04,2.07c-3.85,1.38-7.15,3.28-9.91,5.71l-4.01-6.65c3.34-2.84,7.36-5.04,12.04-6.58
					c4.68-1.55,9.61-2.32,14.8-2.32C1825.29,349.73,1831.9,351.89,1836.5,356.19z M1826.46,406.36c3.59-2.3,6.27-5.62,8.02-9.97
					V385.6h-20.69c-11.29,0-16.93,3.93-16.93,11.79c0,3.85,1.46,6.88,4.39,9.09c2.93,2.22,7.02,3.32,12.29,3.32
					C1818.56,409.81,1822.87,408.66,1826.46,406.36z"/>
			</g>
			<g>
				<g>
					<path class="st1" d="M599.1,126.05v49.63h86.89v34.87H599.1v68.4h-43.45V91.18h141.87v34.87H599.1z"/>
					<path class="st1" d="M749.15,259.9c-14.93-14.84-22.39-36.03-22.39-63.57V91.18h43.45v103.54c0,33.62,13.95,50.43,41.84,50.43
						c13.59,0,23.96-4.07,31.11-12.21c7.15-8.14,10.73-20.88,10.73-38.22V91.18h42.91v105.15c0,27.54-7.47,48.73-22.39,63.57
						c-14.93,14.85-35.8,22.26-62.62,22.26C784.95,282.17,764.08,274.75,749.15,259.9z"/>
					<path class="st1" d="M1113.21,91.18v187.77h-35.67l-93.6-114v114h-42.91V91.18h35.94l93.33,114v-114H1113.21z"/>
					<path class="st1" d="M1279.75,126.05v49.63h86.89v34.87h-86.89v68.4h-43.45V91.18h141.87v34.87H1279.75z"/>
					<path class="st1" d="M1524.88,238.71h-87.16l-16.63,40.24h-44.52l83.67-187.77h42.91l83.94,187.77h-45.59L1524.88,238.71z
						 M1511.2,205.72l-29.77-71.89l-29.77,71.89H1511.2z"/>
					<path class="st1" d="M1643.28,269.69c-15.47-8.32-27.62-19.85-36.47-34.6c-8.85-14.75-13.28-31.43-13.28-50.03
						c0-18.6,4.43-35.27,13.28-50.03c8.85-14.75,21.01-26.29,36.47-34.6c15.46-8.32,32.85-12.47,52.16-12.47
						c16.27,0,30.98,2.86,44.12,8.58c13.14,5.73,24.18,13.95,33.12,24.68l-27.89,25.75c-12.7-14.66-28.43-22-47.2-22
						c-11.62,0-21.99,2.55-31.11,7.65s-16.23,12.21-21.32,21.33c-5.09,9.12-7.64,19.49-7.64,31.12c0,11.63,2.55,22,7.64,31.12
						c5.1,9.12,12.2,16.23,21.32,21.33c9.12,5.1,19.49,7.65,31.11,7.65c18.77,0,34.5-7.42,47.2-22.26l27.89,25.75
						c-8.94,10.91-20.03,19.23-33.25,24.95c-13.23,5.72-27.98,8.58-44.25,8.58C1676.04,282.17,1658.74,278.01,1643.28,269.69z"/>
					<path class="st1" d="M1840.26,126.58h-60.07V91.18h163.59v35.41h-60.07v152.36h-43.45V126.58z"/>
				</g>
				<g>
					<linearGradient id="SVGID_5_" gradientUnits="userSpaceOnUse" x1="1249.7179" y1="282.165" x2="1249.7179" y2="87.957">
						<stop  offset="0" style="stop-color:#B8B8B8"/>
						<stop  offset="0.1063" style="stop-color:#C9C9C9"/>
						<stop  offset="0.2997" style="stop-color:#E1E1E1"/>
						<stop  offset="0.5048" style="stop-color:#F2F2F2"/>
						<stop  offset="0.7275" style="stop-color:#FCFCFC"/>
						<stop  offset="1" style="stop-color:#FFFFFF"/>
					</linearGradient>
					<path class="st6" d="M599.1,126.05v49.63h86.89v34.87H599.1v68.4h-43.45V91.18h141.87v34.87H599.1z"/>
					<linearGradient id="SVGID_6_" gradientUnits="userSpaceOnUse" x1="1249.7179" y1="282.165" x2="1249.7179" y2="87.957">
						<stop  offset="0" style="stop-color:#B8B8B8"/>
						<stop  offset="0.1063" style="stop-color:#C9C9C9"/>
						<stop  offset="0.2997" style="stop-color:#E1E1E1"/>
						<stop  offset="0.5048" style="stop-color:#F2F2F2"/>
						<stop  offset="0.7275" style="stop-color:#FCFCFC"/>
						<stop  offset="1" style="stop-color:#FFFFFF"/>
					</linearGradient>
					<path class="st7" d="M749.15,259.9c-14.93-14.84-22.39-36.03-22.39-63.57V91.18h43.45v103.54c0,33.62,13.95,50.43,41.84,50.43
						c13.59,0,23.96-4.07,31.11-12.21c7.15-8.14,10.73-20.88,10.73-38.22V91.18h42.91v105.15c0,27.54-7.47,48.73-22.39,63.57
						c-14.93,14.85-35.8,22.26-62.62,22.26C784.95,282.17,764.08,274.75,749.15,259.9z"/>
					<linearGradient id="SVGID_7_" gradientUnits="userSpaceOnUse" x1="1249.7179" y1="282.165" x2="1249.7179" y2="87.957">
						<stop  offset="0" style="stop-color:#B8B8B8"/>
						<stop  offset="0.1063" style="stop-color:#C9C9C9"/>
						<stop  offset="0.2997" style="stop-color:#E1E1E1"/>
						<stop  offset="0.5048" style="stop-color:#F2F2F2"/>
						<stop  offset="0.7275" style="stop-color:#FCFCFC"/>
						<stop  offset="1" style="stop-color:#FFFFFF"/>
					</linearGradient>
					<path class="st8" d="M1113.21,91.18v187.77h-35.67l-93.6-114v114h-42.91V91.18h35.94l93.33,114v-114H1113.21z"/>
					<linearGradient id="SVGID_8_" gradientUnits="userSpaceOnUse" x1="1249.7179" y1="282.165" x2="1249.7179" y2="87.957">
						<stop  offset="0" style="stop-color:#B8B8B8"/>
						<stop  offset="0.1063" style="stop-color:#C9C9C9"/>
						<stop  offset="0.2997" style="stop-color:#E1E1E1"/>
						<stop  offset="0.5048" style="stop-color:#F2F2F2"/>
						<stop  offset="0.7275" style="stop-color:#FCFCFC"/>
						<stop  offset="1" style="stop-color:#FFFFFF"/>
					</linearGradient>
					<path class="st9" d="M1279.75,126.05v49.63h86.89v34.87h-86.89v68.4h-43.45V91.18h141.87v34.87H1279.75z"/>
					<linearGradient id="SVGID_9_" gradientUnits="userSpaceOnUse" x1="1249.7179" y1="282.165" x2="1249.7179" y2="87.957">
						<stop  offset="0" style="stop-color:#B8B8B8"/>
						<stop  offset="0.1063" style="stop-color:#C9C9C9"/>
						<stop  offset="0.2997" style="stop-color:#E1E1E1"/>
						<stop  offset="0.5048" style="stop-color:#F2F2F2"/>
						<stop  offset="0.7275" style="stop-color:#FCFCFC"/>
						<stop  offset="1" style="stop-color:#FFFFFF"/>
					</linearGradient>
					<path class="st10" d="M1524.88,238.71h-87.16l-16.63,40.24h-44.52l83.67-187.77h42.91l83.94,187.77h-45.59L1524.88,238.71z
						 M1511.2,205.72l-29.77-71.89l-29.77,71.89H1511.2z"/>
					<linearGradient id="SVGID_10_" gradientUnits="userSpaceOnUse" x1="1249.7179" y1="282.165" x2="1249.7179" y2="87.957">
						<stop  offset="0" style="stop-color:#B8B8B8"/>
						<stop  offset="0.1063" style="stop-color:#C9C9C9"/>
						<stop  offset="0.2997" style="stop-color:#E1E1E1"/>
						<stop  offset="0.5048" style="stop-color:#F2F2F2"/>
						<stop  offset="0.7275" style="stop-color:#FCFCFC"/>
						<stop  offset="1" style="stop-color:#FFFFFF"/>
					</linearGradient>
					<path class="st11" d="M1643.28,269.69c-15.47-8.32-27.62-19.85-36.47-34.6c-8.85-14.75-13.28-31.43-13.28-50.03
						c0-18.6,4.43-35.27,13.28-50.03c8.85-14.75,21.01-26.29,36.47-34.6c15.46-8.32,32.85-12.47,52.16-12.47
						c16.27,0,30.98,2.86,44.12,8.58c13.14,5.73,24.18,13.95,33.12,24.68l-27.89,25.75c-12.7-14.66-28.43-22-47.2-22
						c-11.62,0-21.99,2.55-31.11,7.65s-16.23,12.21-21.32,21.33c-5.09,9.12-7.64,19.49-7.64,31.12c0,11.63,2.55,22,7.64,31.12
						c5.1,9.12,12.2,16.23,21.32,21.33c9.12,5.1,19.49,7.65,31.11,7.65c18.77,0,34.5-7.42,47.2-22.26l27.89,25.75
						c-8.94,10.91-20.03,19.23-33.25,24.95c-13.23,5.72-27.98,8.58-44.25,8.58C1676.04,282.17,1658.74,278.01,1643.28,269.69z"/>
					<linearGradient id="SVGID_11_" gradientUnits="userSpaceOnUse" x1="1249.7179" y1="282.165" x2="1249.7179" y2="87.957">
						<stop  offset="0" style="stop-color:#B8B8B8"/>
						<stop  offset="0.1063" style="stop-color:#C9C9C9"/>
						<stop  offset="0.2997" style="stop-color:#E1E1E1"/>
						<stop  offset="0.5048" style="stop-color:#F2F2F2"/>
						<stop  offset="0.7275" style="stop-color:#FCFCFC"/>
						<stop  offset="1" style="stop-color:#FFFFFF"/>
					</linearGradient>
					<path class="st12" d="M1840.26,126.58h-60.07V91.18h163.59v35.41h-60.07v152.36h-43.45V126.58z"/>
				</g>
			</g>
		</g>
	</g>
</g>
<g id="STEAM_Torch">
</g>
</svg>
