<?xml version="1.0" encoding="utf-8"?>
<!-- Generator: Adobe Illustrator 23.0.5, SVG Export Plug-In . SVG Version: 6.00 Build 0)  -->
<svg version="1.1" id="Nombre_del_proyecto" xmlns="http://www.w3.org/2000/svg" xmlns:xlink="http://www.w3.org/1999/xlink"
	 x="0px" y="0px" viewBox="0 0 2131 500" style="enable-background:new 0 0 2131 500;" xml:space="preserve">
<style type="text/css">
	.st0{display:none;}
	.st1{display:inline;}
	.st2{fill:#2F2F2F;}
	.st3{fill:#FFFFFF;}
	.st4{fill:url(#Marco_con_fondo_2_);}
	.st5{fill:url(#Ícono_9_);}
	.st6{fill:url(#SVGID_1_);}
	.st7{fill:url(#SVGID_2_);}
	.st8{fill:url(#Ícono_10_);}
	.st9{fill:url(#Marco_con_fondo_3_);}
	.st10{fill:url(#Ícono_11_);}
	.st11{fill:url(#Fondo_del_marco_1_);}
	.st12{fill:url(#Marco_3_);}
	.st13{fill:url(#Ícono_12_);}
	.st14{display:none;opacity:0.3;fill:url(#Área_estandarizada_para_el_ícono_2_);}
	.st15{fill:url(#SVGID_3_);}
	.st16{fill:url(#SVGID_4_);}
	.st17{fill:url(#SVGID_5_);}
	.st18{fill:url(#SVGID_6_);}
	.st19{fill:url(#SVGID_7_);}
	.st20{fill:url(#SVGID_8_);}
	.st21{fill:url(#SVGID_9_);}
	.st22{fill:url(#SVGID_10_);}
	.st23{fill:url(#SVGID_11_);}
	.st24{fill:url(#SVGID_12_);}
	.st25{fill:url(#SVGID_13_);}
	.st26{fill:url(#SVGID_14_);}
	.st27{fill:url(#SVGID_15_);}
	.st28{fill:url(#SVGID_16_);}
	.st29{fill:url(#SVGID_17_);}
	.st30{fill:url(#SVGID_18_);}
	.st31{fill:url(#SVGID_19_);}
	.st32{fill:url(#SVGID_20_);}
	.st33{fill:url(#Ícono_13_);}
	.st34{display:none;opacity:0.3;fill:url(#Área_estandarizada_para_el_ícono_3_);}
	.st35{fill:#1F1F1F;}
	.st36{fill:url(#Degradado_Oscuro_1_);}
	.st37{fill:#B8B8B8;}
	.st38{fill:url(#Degradado_Claro_1_);}
	.st39{fill:#AE3140;}
	.st40{fill:#CE493D;}
	.st41{fill:url(#Degradado_Principal_1_);}
	.st42{fill:none;stroke:#EDFF00;stroke-miterlimit:10;}
	.st43{fill:#999999;}
</style>
<g id="Fondos_1_" class="st0">
	<rect x="0.1" class="st1" width="2130.9" height="500"/>
</g>
<g id="Oscuro_Horizontal_1_">
	<g id="Logo_1_">
		<g id="Marco_1_">
			<linearGradient id="Fondo_del_marco_1_" gradientUnits="userSpaceOnUse" x1="257.146" y1="37.9396" x2="257.146" y2="462.0604">
				<stop  offset="0" style="stop-color:#2F2F2F"/>
				<stop  offset="0.5303" style="stop-color:#292929"/>
				<stop  offset="1" style="stop-color:#1F1F1F"/>
			</linearGradient>
			<path id="Fondo_del_marco" class="st11" d="M387.4,37.9H126.8c-45.2,0-81.8,36.6-81.8,81.8v260.6c0,45.2,36.6,81.8,81.8,81.8
				h260.6c45.2,0,81.8-36.6,81.8-81.8V119.7C469.2,74.5,432.6,37.9,387.4,37.9z"/>
			<linearGradient id="Marco_3_" gradientUnits="userSpaceOnUse" x1="257.1459" y1="487.3403" x2="257.1459" y2="12.6597">
				<stop  offset="0" style="stop-color:#B8B8B8"/>
				<stop  offset="3.082472e-02" style="stop-color:#C1C1C1"/>
				<stop  offset="0.1291" style="stop-color:#D8D8D8"/>
				<stop  offset="0.243" style="stop-color:#E9E9E9"/>
				<stop  offset="0.3803" style="stop-color:#F6F6F6"/>
				<stop  offset="0.5651" style="stop-color:#FDFDFD"/>
				<stop  offset="1" style="stop-color:#FFFFFF"/>
			</linearGradient>
			<path id="Marco_2_" class="st12" d="M387.4,37.9c45.2,0,81.8,36.6,81.8,81.8v260.6c0,45.2-36.6,81.8-81.8,81.8H126.8
				c-45.2,0-81.8-36.6-81.8-81.8V119.7c0-45.2,36.6-81.8,81.8-81.8H387.4 M387.4,12.7H126.8c-28.6,0-55.5,11.1-75.7,31.4
				c-20.2,20.2-31.4,47.1-31.4,75.7v260.6c0,28.6,11.1,55.5,31.4,75.7c20.2,20.2,47.1,31.4,75.7,31.4h260.6
				c28.6,0,55.5-11.1,75.7-31.4s31.4-47.1,31.4-75.7V119.7c0-28.6-11.1-55.5-31.4-75.7S416,12.7,387.4,12.7L387.4,12.7z"/>
		</g>
		<linearGradient id="Ícono_9_" gradientUnits="userSpaceOnUse" x1="106.2919" y1="250" x2="408" y2="250">
			<stop  offset="0" style="stop-color:#CE493D"/>
			<stop  offset="1" style="stop-color:#AE3140"/>
		</linearGradient>
		<path id="Ícono_2_" class="st5" d="M396.6,329.4H117.7c-6.3,0-11.4,6.5-11.4,14.5v42.5c0,8,5.1,14.5,11.4,14.5h278.9
			c6.3,0,11.4-6.5,11.4-14.5v-42.5C408,335.9,402.9,329.4,396.6,329.4z M257.1,373.5c0,3.4-2.2,6.1-4.8,6.1H128.7
			c-2.7,0-4.8-2.7-4.8-6.1v-16.7c0-3.4,2.2-6.1,4.8-6.1h123.7c2.7,0,4.8,2.7,4.8,6.1V373.5z M396.6,214.3H117.7
			c-6.3,0-11.4,6.5-11.4,14.5v42.5c0,8,5.1,14.5,11.4,14.5h278.9c6.3,0,11.4-6.5,11.4-14.5v-42.5C408,220.8,402.9,214.3,396.6,214.3
			z M390.5,255.8c0,4.8-3.1,8.7-6.8,8.7h-253c-3.8,0-6.8-3.9-6.8-8.7v-11.6c0-4.8,3.1-8.7,6.8-8.7h253c3.8,0,6.8,3.9,6.8,8.7V255.8z
			 M396.6,99.1H117.7c-6.3,0-11.4,6.5-11.4,14.5v42.5c0,8,5.1,14.5,11.4,14.5h278.9c6.3,0,11.4-6.5,11.4-14.5v-42.5
			C408,105.6,402.9,99.1,396.6,99.1z M257.1,143.2c0,3.4-2.2,6.1-4.8,6.1H128.7c-2.7,0-4.8-2.7-4.8-6.1v-16.7c0-3.4,2.2-6.1,4.8-6.1
			h123.7c2.7,0,4.8,2.7,4.8,6.1V143.2z"/>
	</g>
	
		<linearGradient id="Área_estandarizada_para_el_ícono_2_" gradientUnits="userSpaceOnUse" x1="257.1459" y1="401" x2="257.1459" y2="99">
		<stop  offset="0" style="stop-color:#B8B8B8"/>
		<stop  offset="0.1063" style="stop-color:#C9C9C9"/>
		<stop  offset="0.2997" style="stop-color:#E1E1E1"/>
		<stop  offset="0.5048" style="stop-color:#F2F2F2"/>
		<stop  offset="0.7275" style="stop-color:#FCFCFC"/>
		<stop  offset="1" style="stop-color:#FFFFFF"/>
	</linearGradient>
	<rect id="Área_estandarizada_para_el_ícono_1_" x="106.1" y="99" class="st14" width="302" height="302"/>
	<g id="Textos_1_">
		<g>
			<path class="st3" d="M652.7,392.7h-48.9l-10.5,23.5h-9.7l40.1-87.8h9.2l40.1,87.8h-9.8L652.7,392.7z M649.3,385.2l-21.1-47.2
				l-21.1,47.2H649.3z"/>
			<path class="st3" d="M685.7,323.1h8.9v93.1h-8.9V323.1z"/>
			<path class="st3" d="M780.5,350.2v57.9c0,11.2-2.7,19.5-8.2,24.9c-5.5,5.4-13.7,8.1-24.8,8.1c-6.1,0-11.9-0.9-17.4-2.7
				c-5.5-1.8-9.9-4.3-13.4-7.5l4.5-6.8c3.2,2.8,7,5.1,11.6,6.6c4.6,1.6,9.3,2.4,14.4,2.4c8.4,0,14.5-1.9,18.4-5.8
				c3.9-3.9,5.9-9.9,5.9-18.1v-8.4c-2.8,4.2-6.4,7.4-10.8,9.5c-4.5,2.2-9.4,3.3-14.9,3.3c-6.2,0-11.8-1.4-16.9-4.1
				c-5.1-2.7-9-6.5-11.9-11.4s-4.3-10.4-4.3-16.6c0-6.2,1.4-11.7,4.3-16.6c2.9-4.8,6.8-8.6,11.8-11.3c5-2.7,10.7-4,16.9-4
				c5.6,0,10.7,1.1,15.2,3.4c4.5,2.3,8.2,5.5,10.9,9.8v-12.7H780.5z M759.7,402.7c3.8-2,6.8-4.9,9-8.6c2.1-3.7,3.2-7.9,3.2-12.5
				c0-4.7-1.1-8.8-3.2-12.5c-2.1-3.6-5.1-6.5-8.9-8.5c-3.8-2-8.1-3.1-13-3.1c-4.8,0-9,1-12.9,3c-3.8,2-6.8,4.9-8.9,8.5
				c-2.1,3.7-3.2,7.9-3.2,12.5c0,4.7,1.1,8.9,3.2,12.5c2.1,3.7,5.1,6.5,8.9,8.6c3.8,2,8.1,3.1,12.9,3.1S755.8,404.8,759.7,402.7z"/>
			<path class="st3" d="M815.2,412.5c-5.1-2.9-9.1-6.9-12-12c-2.9-5.1-4.4-10.9-4.4-17.3c0-6.4,1.5-12.2,4.4-17.3
				c2.9-5.1,6.9-9.1,12-11.9c5.1-2.8,10.8-4.3,17.2-4.3c6.4,0,12.1,1.4,17.2,4.3c5.1,2.8,9.1,6.8,12,11.9c2.9,5.1,4.3,10.9,4.3,17.3
				c0,6.4-1.4,12.2-4.3,17.3c-2.9,5.1-6.9,9.1-12,12c-5.1,2.9-10.8,4.3-17.2,4.3C826.1,416.8,820.3,415.4,815.2,412.5z M845,405.7
				c3.7-2.1,6.6-5.2,8.7-9.1c2.1-3.9,3.1-8.4,3.1-13.4c0-5-1-9.5-3.1-13.4c-2.1-3.9-5-7-8.7-9.1c-3.7-2.1-7.9-3.2-12.6-3.2
				c-4.7,0-8.9,1.1-12.6,3.2c-3.7,2.1-6.6,5.2-8.8,9.1c-2.1,3.9-3.2,8.4-3.2,13.4c0,5,1.1,9.5,3.2,13.4c2.1,3.9,5.1,7,8.8,9.1
				c3.7,2.1,7.9,3.2,12.6,3.2C837.1,408.9,841.3,407.9,845,405.7z"/>
			<path class="st3" d="M967.7,353.9c5,2.8,8.9,6.8,11.8,11.9c2.8,5.1,4.3,10.9,4.3,17.4c0,6.6-1.4,12.5-4.3,17.6
				c-2.8,5.1-6.8,9.1-11.7,11.9c-5,2.8-10.6,4.2-16.9,4.2c-5.4,0-10.2-1.1-14.5-3.3c-4.3-2.2-7.8-5.5-10.6-9.7v36.7h-8.9v-90.3h8.5
				v13c2.7-4.3,6.2-7.7,10.6-10c4.4-2.3,9.3-3.5,14.9-3.5C957.1,349.7,962.7,351.1,967.7,353.9z M962.8,405.7
				c3.8-2.1,6.7-5.2,8.8-9.1c2.1-3.9,3.2-8.4,3.2-13.4c0-5-1.1-9.5-3.2-13.4c-2.1-3.9-5.1-6.9-8.8-9.1c-3.8-2.2-7.9-3.3-12.5-3.3
				c-4.7,0-8.9,1.1-12.6,3.3c-3.7,2.2-6.6,5.2-8.8,9.1c-2.1,3.9-3.2,8.3-3.2,13.4c0,5,1.1,9.5,3.2,13.4c2.1,3.9,5.1,7,8.8,9.1
				c3.7,2.1,7.9,3.2,12.6,3.2C954.9,408.9,959,407.9,962.8,405.7z"/>
			<path class="st3" d="M1044.4,356.2c4.6,4.3,6.9,10.7,6.9,19.1v40.9h-8.5v-10.3c-2,3.4-5,6.1-8.8,8c-3.9,1.9-8.5,2.9-13.9,2.9
				c-7.4,0-13.2-1.8-17.6-5.3c-4.3-3.5-6.5-8.2-6.5-13.9c0-5.6,2-10.1,6.1-13.5c4.1-3.4,10.5-5.1,19.4-5.1h20.9v-4
				c0-5.7-1.6-10-4.8-13c-3.2-3-7.8-4.5-13.9-4.5c-4.2,0-8.2,0.7-12,2.1c-3.8,1.4-7.1,3.3-9.9,5.7l-4-6.6c3.3-2.8,7.4-5,12-6.6
				c4.7-1.5,9.6-2.3,14.8-2.3C1033.2,349.7,1039.8,351.9,1044.4,356.2z M1034.4,406.4c3.6-2.3,6.3-5.6,8-10v-10.8h-20.7
				c-11.3,0-16.9,3.9-16.9,11.8c0,3.8,1.5,6.9,4.4,9.1c2.9,2.2,7,3.3,12.3,3.3C1026.5,409.8,1030.8,408.7,1034.4,406.4z"/>
			<path class="st3" d="M1093.4,353.1c4.1-2.3,9.3-3.4,15.4-3.4v8.7l-2.1-0.1c-6.9,0-12.4,2.1-16.3,6.4c-3.9,4.3-5.9,10.2-5.9,17.9
				v33.6h-8.9v-66h8.5v12.9C1086.1,358.7,1089.3,355.4,1093.4,353.1z"/>
			<path class="st3" d="M1167.6,356.2c4.6,4.3,6.9,10.7,6.9,19.1v40.9h-8.5v-10.3c-2,3.4-5,6.1-8.8,8c-3.9,1.9-8.5,2.9-13.9,2.9
				c-7.4,0-13.2-1.8-17.6-5.3c-4.3-3.5-6.5-8.2-6.5-13.9c0-5.6,2-10.1,6.1-13.5c4.1-3.4,10.5-5.1,19.4-5.1h20.9v-4
				c0-5.7-1.6-10-4.8-13c-3.2-3-7.8-4.5-13.9-4.5c-4.2,0-8.2,0.7-12,2.1c-3.8,1.4-7.1,3.3-9.9,5.7l-4-6.6c3.3-2.8,7.4-5,12-6.6
				c4.7-1.5,9.6-2.3,14.8-2.3C1156.4,349.7,1163,351.9,1167.6,356.2z M1157.5,406.4c3.6-2.3,6.3-5.6,8-10v-10.8h-20.7
				c-11.3,0-16.9,3.9-16.9,11.8c0,3.8,1.5,6.9,4.4,9.1c2.9,2.2,7,3.3,12.3,3.3C1149.6,409.8,1153.9,408.7,1157.5,406.4z"/>
			<path class="st3" d="M1241.4,412.6c-5.1-2.8-9.2-6.8-12.1-12c-2.9-5.1-4.4-10.9-4.4-17.4c0-6.4,1.5-12.2,4.4-17.3
				c2.9-5.1,7-9.1,12.1-11.9c5.1-2.8,11-4.3,17.5-4.3c5.7,0,10.8,1.1,15.2,3.3c4.5,2.2,8,5.5,10.6,9.7l-6.6,4.5
				c-2.2-3.3-4.9-5.7-8.3-7.3c-3.3-1.6-7-2.4-10.9-2.4c-4.8,0-9,1.1-12.9,3.2c-3.8,2.1-6.8,5.2-8.9,9.1c-2.1,3.9-3.2,8.4-3.2,13.4
				c0,5.1,1.1,9.6,3.2,13.5c2.1,3.9,5.1,6.9,8.9,9c3.8,2.1,8.1,3.2,12.9,3.2c3.9,0,7.6-0.8,10.9-2.4c3.3-1.6,6.1-4,8.3-7.3l6.6,4.5
				c-2.6,4.3-6.1,7.5-10.7,9.7c-4.5,2.2-9.6,3.3-15.2,3.3C1252.3,416.8,1246.5,415.4,1241.4,412.6z"/>
			<path class="st3" d="M1361.5,350.2v66h-8.5v-12c-2.3,4-5.6,7.1-9.7,9.3c-4.1,2.2-8.8,3.3-14,3.3c-8.6,0-15.4-2.4-20.4-7.2
				c-5-4.8-7.5-11.9-7.5-21.1v-38.3h8.9v37.4c0,6.9,1.7,12.2,5.1,15.8c3.4,3.6,8.3,5.4,14.7,5.4c6.9,0,12.4-2.1,16.4-6.3
				c4-4.2,6-10.1,6-17.6v-34.6H1361.5z"/>
			<path class="st3" d="M1429.4,356.2c4.6,4.3,6.9,10.7,6.9,19.1v40.9h-8.5v-10.3c-2,3.4-5,6.1-8.8,8c-3.9,1.9-8.5,2.9-13.9,2.9
				c-7.4,0-13.2-1.8-17.6-5.3c-4.3-3.5-6.5-8.2-6.5-13.9c0-5.6,2-10.1,6.1-13.5c4.1-3.4,10.5-5.1,19.4-5.1h20.9v-4
				c0-5.7-1.6-10-4.8-13c-3.2-3-7.8-4.5-13.9-4.5c-4.2,0-8.2,0.7-12,2.1c-3.8,1.4-7.1,3.3-9.9,5.7l-4-6.6c3.3-2.8,7.4-5,12-6.6
				c4.7-1.5,9.6-2.3,14.8-2.3C1418.2,349.7,1424.8,351.9,1429.4,356.2z M1419.3,406.4c3.6-2.3,6.3-5.6,8-10v-10.8h-20.7
				c-11.3,0-16.9,3.9-16.9,11.8c0,3.8,1.5,6.9,4.4,9.1c2.9,2.2,7,3.3,12.3,3.3C1411.4,409.8,1415.7,408.7,1419.3,406.4z"/>
			<path class="st3" d="M1460.5,323.1h8.9v93.1h-8.9V323.1z"/>
			<path class="st3" d="M1554.4,350.2v90.3h-8.9v-36.7c-2.8,4.3-6.3,7.5-10.6,9.7c-4.3,2.2-9.1,3.3-14.5,3.3
				c-6.3,0-11.9-1.4-16.9-4.2c-5-2.8-8.9-6.8-11.7-11.9c-2.8-5.1-4.3-11-4.3-17.6c0-6.5,1.4-12.3,4.3-17.4c2.8-5.1,6.8-9,11.8-11.9
				c5-2.8,10.6-4.2,16.8-4.2c5.5,0,10.5,1.2,14.9,3.5c4.4,2.3,7.9,5.7,10.6,10v-13H1554.4z M1533.6,405.7c3.7-2.1,6.6-5.2,8.8-9.1
				c2.1-3.9,3.2-8.4,3.2-13.4c0-5-1.1-9.5-3.2-13.4c-2.1-3.9-5.1-6.9-8.8-9.1c-3.7-2.2-7.9-3.3-12.5-3.3c-4.7,0-8.9,1.1-12.6,3.3
				c-3.7,2.2-6.6,5.2-8.8,9.1c-2.1,3.9-3.2,8.3-3.2,13.4c0,5,1.1,9.5,3.2,13.4c2.1,3.9,5.1,7,8.8,9.1c3.7,2.1,7.9,3.2,12.6,3.2
				C1525.7,408.9,1529.9,407.9,1533.6,405.7z"/>
			<path class="st3" d="M1638.6,350.2v66h-8.5v-12c-2.3,4-5.6,7.1-9.7,9.3c-4.1,2.2-8.8,3.3-14,3.3c-8.6,0-15.4-2.4-20.4-7.2
				c-5-4.8-7.5-11.9-7.5-21.1v-38.3h8.9v37.4c0,6.9,1.7,12.2,5.1,15.8c3.4,3.6,8.3,5.4,14.7,5.4c6.9,0,12.4-2.1,16.4-6.3
				c4-4.2,6-10.1,6-17.6v-34.6H1638.6z"/>
			<path class="st3" d="M1663.5,333.9c-1.3-1.3-1.9-2.8-1.9-4.5c0-1.7,0.6-3.1,1.9-4.4c1.3-1.3,2.8-1.9,4.6-1.9
				c1.8,0,3.4,0.6,4.6,1.8c1.3,1.2,1.9,2.7,1.9,4.3c0,1.8-0.6,3.4-1.9,4.6c-1.3,1.3-2.8,1.9-4.6,1.9
				C1666.3,335.8,1664.7,335.2,1663.5,333.9z M1663.6,350.2h8.9v66h-8.9V350.2z"/>
			<path class="st3" d="M1754.7,386h-55.2c0.5,6.9,3.1,12.4,7.9,16.6c4.8,4.2,10.8,6.3,18.1,6.3c4.1,0,7.9-0.7,11.3-2.2
				c3.4-1.5,6.4-3.6,8.9-6.5l5,5.8c-2.9,3.5-6.6,6.2-11,8c-4.4,1.8-9.2,2.8-14.5,2.8c-6.8,0-12.8-1.4-18-4.3
				c-5.2-2.9-9.3-6.9-12.2-12c-2.9-5.1-4.4-10.9-4.4-17.3c0-6.4,1.4-12.2,4.2-17.3c2.8-5.1,6.6-9.1,11.5-11.9
				c4.9-2.8,10.4-4.3,16.5-4.3c6.1,0,11.6,1.4,16.4,4.3c4.8,2.8,8.7,6.8,11.4,11.9c2.8,5.1,4.1,10.8,4.1,17.4L1754.7,386z
				 M1706.9,363.5c-4.3,4.1-6.8,9.3-7.3,15.9h46.8c-0.6-6.5-3-11.8-7.3-15.9c-4.3-4.1-9.7-6.1-16.1-6.1
				C1716.5,357.4,1711.2,359.4,1706.9,363.5z"/>
			<path class="st3" d="M1790.9,353.1c4.1-2.3,9.3-3.4,15.4-3.4v8.7l-2.1-0.1c-6.9,0-12.4,2.1-16.3,6.4c-3.9,4.3-5.9,10.2-5.9,17.9
				v33.6h-8.9v-66h8.5v12.9C1783.7,358.7,1786.8,355.4,1790.9,353.1z"/>
			<path class="st3" d="M1866,412.6c-5.1-2.8-9.2-6.8-12.1-12c-2.9-5.1-4.4-10.9-4.4-17.4c0-6.4,1.5-12.2,4.4-17.3
				c2.9-5.1,7-9.1,12.1-11.9c5.1-2.8,11-4.3,17.5-4.3c5.7,0,10.8,1.1,15.2,3.3c4.5,2.2,8,5.5,10.6,9.7l-6.6,4.5
				c-2.2-3.3-4.9-5.7-8.3-7.3c-3.3-1.6-7-2.4-10.9-2.4c-4.8,0-9,1.1-12.9,3.2c-3.8,2.1-6.8,5.2-8.9,9.1c-2.1,3.9-3.2,8.4-3.2,13.4
				c0,5.1,1.1,9.6,3.2,13.5c2.1,3.9,5.1,6.9,8.9,9c3.8,2.1,8.1,3.2,12.9,3.2c3.9,0,7.6-0.8,10.9-2.4c3.3-1.6,6.1-4,8.3-7.3l6.6,4.5
				c-2.6,4.3-6.1,7.5-10.7,9.7c-4.5,2.2-9.6,3.3-15.2,3.3C1877,416.8,1871.2,415.4,1866,412.6z"/>
			<path class="st3" d="M1935.4,412.5c-5.1-2.9-9.1-6.9-12-12c-2.9-5.1-4.4-10.9-4.4-17.3c0-6.4,1.5-12.2,4.4-17.3
				c2.9-5.1,6.9-9.1,12-11.9c5.1-2.8,10.8-4.3,17.2-4.3c6.4,0,12.1,1.4,17.2,4.3c5.1,2.8,9.1,6.8,12,11.9c2.9,5.1,4.3,10.9,4.3,17.3
				c0,6.4-1.4,12.2-4.3,17.3c-2.9,5.1-6.9,9.1-12,12c-5.1,2.9-10.8,4.3-17.2,4.3C1946.2,416.8,1940.5,415.4,1935.4,412.5z
				 M1965.2,405.7c3.7-2.1,6.6-5.2,8.7-9.1c2.1-3.9,3.1-8.4,3.1-13.4c0-5-1-9.5-3.1-13.4c-2.1-3.9-5-7-8.7-9.1
				c-3.7-2.1-7.9-3.2-12.6-3.2c-4.7,0-8.9,1.1-12.6,3.2c-3.7,2.1-6.6,5.2-8.8,9.1c-2.1,3.9-3.2,8.4-3.2,13.4c0,5,1.1,9.5,3.2,13.4
				c2.1,3.9,5.1,7,8.8,9.1c3.7,2.1,7.9,3.2,12.6,3.2C1957.3,408.9,1961.5,407.9,1965.2,405.7z"/>
			<path class="st3" d="M2006.6,414.5c-4.9-1.5-8.7-3.5-11.5-5.8l4-7c2.8,2.2,6.2,4,10.4,5.3c4.2,1.4,8.5,2.1,13,2.1
				c6,0,10.5-0.9,13.4-2.8c2.9-1.9,4.3-4.5,4.3-8c0-2.4-0.8-4.3-2.4-5.7c-1.6-1.4-3.6-2.4-6-3.1c-2.4-0.7-5.6-1.4-9.7-2.1
				c-5.4-1-9.7-2-12.9-3.1c-3.3-1-6-2.8-8.3-5.3c-2.3-2.5-3.4-6-3.4-10.4c0-5.5,2.3-10,6.9-13.5c4.6-3.5,11-5.3,19.2-5.3
				c4.3,0,8.5,0.6,12.8,1.7c4.3,1.1,7.8,2.6,10.5,4.5l-3.9,7.1c-5.4-3.8-11.9-5.6-19.4-5.6c-5.7,0-10,1-12.9,3
				c-2.9,2-4.3,4.6-4.3,7.9c0,2.5,0.8,4.5,2.4,6c1.6,1.5,3.7,2.6,6.1,3.3c2.4,0.7,5.8,1.4,10,2.2c5.3,1,9.5,2,12.7,3
				c3.2,1,5.9,2.7,8.1,5.1c2.3,2.4,3.4,5.8,3.4,10c0,5.8-2.4,10.3-7.2,13.7c-4.8,3.4-11.5,5.1-20,5.1
				C2016.6,416.8,2011.5,416.1,2006.6,414.5z"/>
			<path class="st3" d="M2108.5,356.2c4.6,4.3,6.9,10.7,6.9,19.1v40.9h-8.5v-10.3c-2,3.4-5,6.1-8.8,8c-3.9,1.9-8.5,2.9-13.9,2.9
				c-7.4,0-13.2-1.8-17.6-5.3c-4.3-3.5-6.5-8.2-6.5-13.9c0-5.6,2-10.1,6.1-13.5c4.1-3.4,10.5-5.1,19.4-5.1h20.9v-4
				c0-5.7-1.6-10-4.8-13c-3.2-3-7.8-4.5-13.9-4.5c-4.2,0-8.2,0.7-12,2.1c-3.8,1.4-7.1,3.3-9.9,5.7l-4-6.6c3.3-2.8,7.4-5,12-6.6
				c4.7-1.5,9.6-2.3,14.8-2.3C2097.3,349.7,2103.9,351.9,2108.5,356.2z M2098.4,406.4c3.6-2.3,6.3-5.6,8-10v-10.8h-20.7
				c-11.3,0-16.9,3.9-16.9,11.8c0,3.8,1.5,6.9,4.4,9.1c2.9,2.2,7,3.3,12.3,3.3C2090.5,409.8,2094.8,408.7,2098.4,406.4z"/>
		</g>
		<g>
			<g>
				<path class="st3" d="M727.8,91.2v187.8h-35.7l-93.6-114v114h-42.9V91.2h35.9l93.3,114v-114H727.8z"/>
				<path class="st3" d="M919,244.1v34.9H773.7V91.2h141.9V126h-98.7v40.8H904v33.8h-87.2v43.5H919z"/>
				<path class="st3" d="M993.9,126.6h-60.1V91.2h163.6v35.4h-60.1v152.4h-43.4V126.6z"/>
				<path class="st3" d="M1199.3,91.2h43.4v187.8h-43.4V91.2z"/>
				<path class="st3" d="M1460.8,91.2v187.8h-35.7l-93.6-114v114h-42.9V91.2h35.9l93.3,114v-114H1460.8z"/>
				<path class="st3" d="M1506.6,91.2h85.3c20.4,0,38.4,3.9,54,11.7c15.6,7.8,27.8,18.7,36.5,32.9c8.7,14.1,13,30.6,13,49.4
					s-4.3,35.2-13,49.4c-8.7,14.1-20.8,25.1-36.5,32.9c-15.6,7.8-33.7,11.7-54,11.7h-85.3V91.2z M1589.8,243.3
					c18.8,0,33.7-5.2,44.9-15.7c11.2-10.5,16.8-24.6,16.8-42.5c0-17.9-5.6-32.1-16.8-42.5c-11.2-10.5-26.1-15.7-44.9-15.7h-39.7
					v116.4H1589.8z"/>
				<path class="st3" d="M1874.9,244.1v34.9h-145.4V91.2h141.9V126h-98.7v40.8h87.2v33.8h-87.2v43.5H1874.9z"/>
				<path class="st3" d="M2027.2,278.9l-45.3-65.2l-44.5,65.2h-49.9l69.5-95.5l-66-92.3h49.3l43.2,60.9l42.4-60.9h46.9l-65.4,90.7
					l70,97.1H2027.2z"/>
			</g>
			<g>
				<linearGradient id="SVGID_1_" gradientUnits="userSpaceOnUse" x1="1316.4937" y1="278.9463" x2="1316.4937" y2="91.1758">
					<stop  offset="0" style="stop-color:#B8B8B8"/>
					<stop  offset="0.1063" style="stop-color:#C9C9C9"/>
					<stop  offset="0.2997" style="stop-color:#E1E1E1"/>
					<stop  offset="0.5048" style="stop-color:#F2F2F2"/>
					<stop  offset="0.7275" style="stop-color:#FCFCFC"/>
					<stop  offset="1" style="stop-color:#FFFFFF"/>
				</linearGradient>
				<path class="st6" d="M727.8,91.2v187.8h-35.7l-93.6-114v114h-42.9V91.2h35.9l93.3,114v-114H727.8z"/>
				<linearGradient id="SVGID_2_" gradientUnits="userSpaceOnUse" x1="1316.4937" y1="278.9463" x2="1316.4937" y2="91.1758">
					<stop  offset="0" style="stop-color:#B8B8B8"/>
					<stop  offset="0.1063" style="stop-color:#C9C9C9"/>
					<stop  offset="0.2997" style="stop-color:#E1E1E1"/>
					<stop  offset="0.5048" style="stop-color:#F2F2F2"/>
					<stop  offset="0.7275" style="stop-color:#FCFCFC"/>
					<stop  offset="1" style="stop-color:#FFFFFF"/>
				</linearGradient>
				<path class="st7" d="M919,244.1v34.9H773.7V91.2h141.9V126h-98.7v40.8H904v33.8h-87.2v43.5H919z"/>
				<linearGradient id="SVGID_3_" gradientUnits="userSpaceOnUse" x1="1316.4937" y1="278.9463" x2="1316.4937" y2="91.1758">
					<stop  offset="0" style="stop-color:#B8B8B8"/>
					<stop  offset="0.1063" style="stop-color:#C9C9C9"/>
					<stop  offset="0.2997" style="stop-color:#E1E1E1"/>
					<stop  offset="0.5048" style="stop-color:#F2F2F2"/>
					<stop  offset="0.7275" style="stop-color:#FCFCFC"/>
					<stop  offset="1" style="stop-color:#FFFFFF"/>
				</linearGradient>
				<path class="st15" d="M993.9,126.6h-60.1V91.2h163.6v35.4h-60.1v152.4h-43.4V126.6z"/>
				<linearGradient id="SVGID_4_" gradientUnits="userSpaceOnUse" x1="1316.4937" y1="278.9463" x2="1316.4937" y2="91.1758">
					<stop  offset="0" style="stop-color:#B8B8B8"/>
					<stop  offset="0.1063" style="stop-color:#C9C9C9"/>
					<stop  offset="0.2997" style="stop-color:#E1E1E1"/>
					<stop  offset="0.5048" style="stop-color:#F2F2F2"/>
					<stop  offset="0.7275" style="stop-color:#FCFCFC"/>
					<stop  offset="1" style="stop-color:#FFFFFF"/>
				</linearGradient>
				<path class="st16" d="M1199.3,91.2h43.4v187.8h-43.4V91.2z"/>
				<linearGradient id="SVGID_5_" gradientUnits="userSpaceOnUse" x1="1316.4937" y1="278.9463" x2="1316.4937" y2="91.1758">
					<stop  offset="0" style="stop-color:#B8B8B8"/>
					<stop  offset="0.1063" style="stop-color:#C9C9C9"/>
					<stop  offset="0.2997" style="stop-color:#E1E1E1"/>
					<stop  offset="0.5048" style="stop-color:#F2F2F2"/>
					<stop  offset="0.7275" style="stop-color:#FCFCFC"/>
					<stop  offset="1" style="stop-color:#FFFFFF"/>
				</linearGradient>
				<path class="st17" d="M1460.8,91.2v187.8h-35.7l-93.6-114v114h-42.9V91.2h35.9l93.3,114v-114H1460.8z"/>
				<linearGradient id="SVGID_6_" gradientUnits="userSpaceOnUse" x1="1316.4937" y1="278.9463" x2="1316.4937" y2="91.1758">
					<stop  offset="0" style="stop-color:#B8B8B8"/>
					<stop  offset="0.1063" style="stop-color:#C9C9C9"/>
					<stop  offset="0.2997" style="stop-color:#E1E1E1"/>
					<stop  offset="0.5048" style="stop-color:#F2F2F2"/>
					<stop  offset="0.7275" style="stop-color:#FCFCFC"/>
					<stop  offset="1" style="stop-color:#FFFFFF"/>
				</linearGradient>
				<path class="st18" d="M1506.6,91.2h85.3c20.4,0,38.4,3.9,54,11.7c15.6,7.8,27.8,18.7,36.5,32.9c8.7,14.1,13,30.6,13,49.4
					s-4.3,35.2-13,49.4c-8.7,14.1-20.8,25.1-36.5,32.9c-15.6,7.8-33.7,11.7-54,11.7h-85.3V91.2z M1589.8,243.3
					c18.8,0,33.7-5.2,44.9-15.7c11.2-10.5,16.8-24.6,16.8-42.5c0-17.9-5.6-32.1-16.8-42.5c-11.2-10.5-26.1-15.7-44.9-15.7h-39.7
					v116.4H1589.8z"/>
				<linearGradient id="SVGID_7_" gradientUnits="userSpaceOnUse" x1="1316.4937" y1="278.9463" x2="1316.4937" y2="91.1758">
					<stop  offset="0" style="stop-color:#B8B8B8"/>
					<stop  offset="0.1063" style="stop-color:#C9C9C9"/>
					<stop  offset="0.2997" style="stop-color:#E1E1E1"/>
					<stop  offset="0.5048" style="stop-color:#F2F2F2"/>
					<stop  offset="0.7275" style="stop-color:#FCFCFC"/>
					<stop  offset="1" style="stop-color:#FFFFFF"/>
				</linearGradient>
				<path class="st19" d="M1874.9,244.1v34.9h-145.4V91.2h141.9V126h-98.7v40.8h87.2v33.8h-87.2v43.5H1874.9z"/>
				<linearGradient id="SVGID_8_" gradientUnits="userSpaceOnUse" x1="1316.4937" y1="278.9463" x2="1316.4937" y2="91.1758">
					<stop  offset="0" style="stop-color:#B8B8B8"/>
					<stop  offset="0.1063" style="stop-color:#C9C9C9"/>
					<stop  offset="0.2997" style="stop-color:#E1E1E1"/>
					<stop  offset="0.5048" style="stop-color:#F2F2F2"/>
					<stop  offset="0.7275" style="stop-color:#FCFCFC"/>
					<stop  offset="1" style="stop-color:#FFFFFF"/>
				</linearGradient>
				<path class="st20" d="M2027.2,278.9l-45.3-65.2l-44.5,65.2h-49.9l69.5-95.5l-66-92.3h49.3l43.2,60.9l42.4-60.9h46.9l-65.4,90.7
					l70,97.1H2027.2z"/>
			</g>
		</g>
	</g>
</g>
</svg>
