<?xml version="1.0" encoding="utf-8"?>
<!-- Generator: Adobe Illustrator 23.0.5, SVG Export Plug-In . SVG Version: 6.00 Build 0)  -->
<svg version="1.1" id="Capa_1" xmlns="http://www.w3.org/2000/svg" xmlns:xlink="http://www.w3.org/1999/xlink" x="0px" y="0px"
	 width="797.5px" height="834.5px" viewBox="0 0 797.5 834.5" style="enable-background:new 0 0 797.5 834.5;" xml:space="preserve"
	>
<style type="text/css">
	.st0{fill:#CCCCCC;}
	.st1{opacity:5.000000e-02;enable-background:new    ;}
	.st2{fill:#939393;}
	.st3{opacity:0.1;enable-background:new    ;}
	.st4{fill:#FFFFFF;}
	.st5{fill:#FFB8B8;}
</style>
<title>void</title>
<ellipse class="st0" cx="308.5" cy="780" rx="308.5" ry="54.5"/>
<circle class="st0" cx="496" cy="301.5" r="301.5"/>
<circle class="st1" cx="496" cy="301.5" r="248.9"/>
<circle class="st1" cx="496" cy="301.5" r="204"/>
<circle class="st1" cx="496" cy="301.5" r="146.3"/>
<path class="st2" d="M197.2,328.5c0,0-23.7,66.7-13.2,90.4s27.2,46.5,27.2,46.5S205.1,332.9,197.2,328.5z"/>
<path class="st3" d="M197.2,328.5c0,0-23.7,66.7-13.2,90.4s27.2,46.5,27.2,46.5S205.1,332.9,197.2,328.5z"/>
<path class="st4" d="M213.9,483c0,0-1.8,16.7-2.6,17.6s0.9,2.6,0,5.3s-1.8,6.1,0,7s-9.7,78.1-9.7,78.1s-28.1,36.9-16.7,94.8
	l3.5,58.8c0,0,27.2,1.8,27.2-7.9c0,0-1.8-11.4-1.8-16.7s4.4-5.3,1.8-7.9s-2.6-4.4-2.6-4.4s4.4-3.5,3.5-4.4s7.9-63.2,7.9-63.2
	s9.7-9.7,9.7-14.9V620c0,0,4.4-11.4,4.4-12.3s23.7-54.4,23.7-54.4l9.7,38.6l10.5,55.3c0,0,5.3,50,15.8,69.4c0,0,18.4,63.2,18.4,61.5
	s30.7-6.1,29.8-14S328,645.4,328,645.4l4.4-164.2L213.9,483z"/>
<path d="M190.1,740.2c0,0-23.7,46.5-7.9,48.3s21.9,1.8,29-5.3c3.8-3.8,11.6-9,17.9-12.9c7.6-4.6,11.8-13.2,11-22
	c-0.5-4.3-2.1-7.8-6-8.2c-10.5-0.9-22.8-10.5-22.8-10.5L190.1,740.2z"/>
<path d="M321,774.5c0,0-23.7,46.5-7.9,48.3c15.8,1.8,21.9,1.8,29-5.3c3.8-3.8,11.6-9,17.9-12.9c7.6-4.6,11.8-13.2,11-22
	c-0.5-4.3-2.1-7.8-6-8.2c-10.5-0.9-22.8-10.5-22.8-10.5L321,774.5z"/>
<circle class="st5" cx="295.9" cy="215.4" r="36.9"/>
<path class="st5" d="M272.2,227.6c0,0-26.4,48.5-28.5,48.5s47.4,15.8,47.4,15.8s13.7-46.4,15.8-50.6L272.2,227.6z"/>
<path class="st2" d="M312.6,280.6c0,0-52.7-29-57.9-28.1s-61.5,50-60.6,70.2s7.9,53.6,7.9,53.6s2.6,93.1,7.9,93.9
	s-0.9,16.7,0.9,16.7s122.9,0,123.8-2.6S312.6,280.6,312.6,280.6z"/>
<path class="st5" d="M342,489.1c0,0,16.7,50.9,2.6,49.2s-20.2-43.9-20.2-43.9L342,489.1z"/>
<path class="st2" d="M297.3,277.6c0,0-32.5,7-27.2,50.9s14.9,87.8,14.9,87.8l32.5,71.1l3.5,13.2l23.7-6.1l-17.6-101.8
	c0,0-6.1-108.9-14-112.4C308.1,278.1,302.7,277.2,297.3,277.6z"/>
<polygon class="st3" points="277.5,415 317.9,486.9 283.9,411.1 "/>
<path d="M332.6,204.6l0.1-2.8l5.6,1.4c-0.1-1.8-1-3.5-2.5-4.6l6-0.3c-10.1-14.4-25.7-24-43.1-26.7c-12.9-1.9-27.3,0.8-36.2,10.4
	c-4.3,4.7-7,10.6-8.9,16.6c-3.5,11.1-4.3,24.4,3.1,33.4c7.5,9.2,20.6,11,32.4,12.1c4.2,0.4,8.5,0.8,12.4-0.8c0.4-4.4-0.1-8.9-1.7-13
	c-0.6-1.3-0.9-2.7-0.9-4.2c0.5-3.5,5.2-4.4,8.7-3.9s7.7,1.2,10.1-1.5c1.6-1.9,1.5-4.6,1.7-7C320,207,332.6,206,332.6,204.6z"/>
<circle class="st4" cx="559" cy="744.5" r="43"/>
<circle class="st4" cx="54" cy="729.5" r="43"/>
<circle class="st4" cx="54" cy="672.5" r="31"/>
<circle class="st4" cx="54" cy="624.5" r="22"/>
</svg>
