<?xml version="1.0" encoding="utf-8"?>
<!-- Generator: Adobe Illustrator 23.0.5, SVG Export Plug-In . SVG Version: 6.00 Build 0)  -->
<svg version="1.1" id="Capa_1" xmlns="http://www.w3.org/2000/svg" xmlns:xlink="http://www.w3.org/1999/xlink" x="0px" y="0px"
	 width="920.8px" height="740.4px" viewBox="0 0 920.8 740.4" style="enable-background:new 0 0 920.8 740.4;" xml:space="preserve"
	>
<style type="text/css">
	.st0{fill:#2B2B2B;}
	.st1{fill:#F2F2F2;}
	.st2{fill:#CACACA;}
	.st3{fill:#8C8C8C;}
	.st4{fill:#A0616A;}
	.st5{fill:#696969;}
	.st6{fill:#CCCCCC;}
</style>
<path class="st0" d="M823.2,362c0,6.6-0.2,13.3-0.5,19.8c-1.3,24.5-5.1,48.8-11.4,72.6c0,0,0,0,0,0c-0.8,3.1-1.7,6.3-2.6,9.4
	c0,0.2-0.1,0.3-0.1,0.4c-1.4,4.6-2.8,9.3-4.4,13.8v0c-49.8,147-187.8,245.9-343,246C290,724,146.6,605.1,108.9,445.4
	c-6.4-27.3-9.7-55.3-9.7-83.4c0-5.6,0.1-11.1,0.4-16.6c3-67.5,24.9-132.8,63.3-188.4c0.5-0.7,0.9-1.4,1.4-2
	C229.7,61.3,338.3,0,461.2,0C635,0,780.1,122.4,815.2,285.6c0,0,0,0,0,0c2.3,10.5,4.1,21.2,5.4,32
	C822.4,332.4,823.3,347.2,823.2,362z"/>
<path class="st0" d="M917.5,665.6c-2.7,9.8-6.9,19.1-12.5,27.5c-12.5,18.9-30.3,33.3-50,44.8c-1.4,0.8-2.7,1.6-4.1,2.4h-13.8
	l-0.5-1.1v0l-0.6-1.3l-0.1-0.2l0,0.2l-0.6,2.4h-6.8c-0.6-0.8-1.1-1.6-1.7-2.4c-0.8-1.2-1.6-2.3-2.3-3.5c-1.3-2.1-2.4-4.3-3.4-6.5
	c-0.1-0.3-0.2-0.5-0.3-0.8l0.5-0.5l-1.9-8.2l3.8-0.6l-4.1-12.7c0.2-0.5,0.3-0.9,0.5-1.4c2.3-5.8,6.7-10.2,11.8-13.9
	c5.3-3.8,11.5-6.8,17.1-10c2.7-1.5,5.3-3.1,7.8-4.7v0c3.3-2.1,6.4-4.4,9.5-6.8c0.1,0,0.1-0.1,0.2-0.1c0,0,0.1-0.1,0.1-0.1
	c13.7-10.7,25.4-23.9,34.3-38.9c0,0,0,0,0,0c0,0,0,0,0,0c0.3-0.5,0.6-1,0.9-1.4v0c3.7-6.3,6.8-12.9,9.4-19.7v0
	c0.2-0.5,0.4-1,0.6-1.5c0.3,0.4,0.5,0.9,0.8,1.3c0,0,0,0,0,0c0,0,0,0,0,0C921.9,625.3,922.8,646.2,917.5,665.6z"/>
<path class="st1" d="M912.2,608c0.1,9.3-0.9,18.5-2.9,27.5c-0.9,4.1-2,8.2-3.4,12.2c-2.6,7.9-6,15.4-10.1,22.6
	c-0.2,0.4-0.5,0.8-0.7,1.2v0c-1.8,3-3.7,5.9-5.8,8.7c-3.1,4.4-7,8.3-11.4,11.5c-3.6,2.4-7.7,4-12,4.6c-0.8,0.2-1.6,0.3-2.5,0.4
	c-3.3,0.4-6.7,0.5-10,1.2c-1.7,0.3-3.3,0.8-4.8,1.5c-5.3,2.5-8.3,7.6-9.6,13.1c-0.2,1-0.4,1.9-0.5,2.9c-1.1,7.5,0.1,15.2-0.5,22.7
	c-0.1,0.8-0.2,1.6-0.3,2.4h-0.7l-0.5-1.1v0c0-0.4,0.1-0.8,0.1-1.3c0.2-3.7,0.3-7.3,0.1-11c0-1.7-0.1-3.3,0-5c0-1.3,0.1-2.7,0.2-4v0
	c0.1-0.8,0.2-1.6,0.3-2.4c0.3-2.5,0.9-4.9,1.8-7.3c1.8-4.9,5.5-8.8,10.3-10.7c1.5-0.5,2.9-1,4.5-1.3c3.3-0.6,6.8-0.8,10.2-1.2
	c0.4,0,0.7-0.1,1.1-0.2c0.4-0.1,0.9-0.2,1.3-0.2c4.4-0.8,8.6-2.6,12.2-5.3c4.3-3.4,8-7.4,11-11.9c1.6-2.3,3.2-4.8,4.6-7.2
	c0,0,0,0,0,0c0,0,0,0,0,0c0.1-0.1,0.1-0.2,0.2-0.3l0,0c6.2-10.6,10.8-22.2,13.5-34.2c0.1-0.4,0.2-0.9,0.3-1.3
	c1.9-8.7,2.8-17.5,2.7-26.4v0c0-0.4,0-0.8,0-1.3c0-0.9,1.3-1,1.3-0.2C912.2,607.1,912.2,607.5,912.2,608
	C912.2,607.9,912.2,607.9,912.2,608C912.2,608,912.2,608,912.2,608z"/>
<path class="st1" d="M894.6,671.2c7.9,4,17.5,1.7,22.7-5.4c0.5-0.7-0.6-1.5-1.1-0.8c-4.8,6.6-13.8,8.8-21.1,5
	C894.3,669.6,893.8,670.8,894.6,671.2L894.6,671.2z"/>
<path class="st1" d="M866.6,695.2c-2.8-8.3-2.3-17.3,1.2-25.3c0.4-0.8-0.9-1.3-1.2-0.5c-3.7,8.3-4.1,17.7-1.2,26.3
	C865.6,696.5,866.9,696,866.6,695.2z"/>
<path class="st1" d="M908.6,634.7c-3.3-0.9-6-3.4-7-6.7c-0.3-0.8-1.5-0.3-1.2,0.5c1.2,3.6,4.1,6.4,7.8,7.4c0.3,0.1,0.7,0,0.9-0.4
	C909.1,635.2,909,634.8,908.6,634.7L908.6,634.7z"/>
<path class="st0" d="M856.5,675.2L856.5,675.2c-0.3,7.2-1.2,14.3-2.7,21.3v0c-0.1,0.5-0.2,1-0.3,1.4c-2.4,10.8-5.8,21.4-10.1,31.6
	c-1.2,2.9-2.4,5.7-3.7,8.5c-0.4,0.8-0.7,1.6-1.1,2.4h-1.5l-0.5-1.1v0l-0.6-1.3l-0.1-0.2l0,0.2l-0.5,2.4h-14.3l-2.8-2.4l-4.1-3.5
	l5.7-6.2l0.9-1l0.1-0.2l0.5-0.5l-1.9-8.2l3.8-0.6l-4.1-12.7l-2-6l-0.5-1.5l-2.9-8.8l-8.6,1.6l-1.4-4.9c2.6-6,4.7-12.1,6.4-18.4
	c0,0,0-0.1,0-0.1c4.5-16.9,5.9-34.5,4-52v0c-0.1-0.6-0.1-1.1-0.2-1.7v0c-0.9-7.2-2.3-14.4-4.3-21.3c-0.1-0.5-0.3-1-0.5-1.6
	c0.5,0.2,0.9,0.4,1.4,0.6l0,0h0c0.7,0.3,1.5,0.7,2.2,1c17.1,8.3,29.6,23.8,36.7,41.8c0,0,0,0.1,0.1,0.1c3.7,9.4,5.9,19.3,6.6,29.4
	C856.7,667.3,856.7,671.3,856.5,675.2z"/>
<path class="st1" d="M830.6,740.4H829c-0.5-0.8-1-1.6-1.6-2.4c-0.9-1.2-1.7-2.4-2.7-3.5c-0.8-1-1.6-2-2.4-3c-0.8-1-1.6-2.1-2.4-3.1
	l0.9-1c0.2,0.2,0.3,0.4,0.5,0.6c2.6,3.4,5.3,6.6,7.7,10.1C829.6,738.8,830.1,739.6,830.6,740.4z"/>
<path class="st1" d="M809.2,591c0.3,0.3,0.5,0.7,0.8,1c2,2.5,3.8,5.1,5.5,7.8c3.1,4.7,5.8,9.7,8.2,14.8c0.2,0.4,0.4,0.8,0.6,1.2
	c5.1,11.2,8.4,23.2,9.8,35.4c0,0.1,0,0.2,0,0.3c0.3,2.9,0.5,5.7,0.6,8.6c0.3,5.4-0.2,10.9-1.6,16.1c-0.2,0.7-0.4,1.4-0.7,2
	c-0.6,1.6-1.4,3.2-2.3,4.7c-0.6,1.1-1.4,2.1-2.1,3.1c-0.5,0.6-1,1.2-1.5,1.8c-0.3,0.3-0.6,0.7-0.9,1c-0.3,0.3-0.5,0.5-0.8,0.8
	c-2.7,2.6-5.7,5-8.1,7.9l0.5,1.5c2.3-3,5.4-5.5,8.1-8c1.7-1.6,3.3-3.4,4.7-5.3c0.2-0.3,0.4-0.5,0.5-0.8c0.9-1.4,1.7-2.8,2.4-4.3
	c0.3-0.8,0.7-1.5,0.9-2.3c1.6-5.2,2.4-10.6,2.2-16c0-3.5-0.2-6.9-0.6-10.4c0-0.4-0.1-0.9-0.2-1.3c-1-8.2-2.9-16.3-5.5-24.1
	c-3.4-9.9-8-19.4-13.8-28.2c-1.7-2.5-3.4-5-5.3-7.3c-0.2-0.3-0.5-0.7-0.8-1C809.6,589.4,808.6,590.3,809.2,591z"/>
<path class="st1" d="M834.9,652.2c8.7-1.5,15-9.2,14.9-18c0-0.4-0.3-0.7-0.7-0.7c-0.4,0-0.6,0.3-0.7,0.6c0.1,8.2-5.8,15.3-13.9,16.7
	C833.7,651,834.1,652.3,834.9,652.2L834.9,652.2z"/>
<path class="st1" d="M827,688.2c-7.2-4.9-12.3-12.4-14.2-20.9c-0.2-0.8-1.5-0.5-1.3,0.3c2,8.9,7.3,16.6,14.9,21.7
	C827,689.9,827.7,688.7,827,688.2z"/>
<path class="st1" d="M824.1,614.6c-3.2,1.3-6.8,0.9-9.6-1.1c-0.7-0.5-1.4,0.7-0.7,1.2c3.1,2.1,7.1,2.6,10.6,1.2
	c0.4-0.1,0.6-0.5,0.5-0.8C824.8,614.7,824.4,614.5,824.1,614.6L824.1,614.6z"/>
<path class="st2" d="M633.3,157H1c-0.6,0-1-0.5-1-1c0-0.5,0.4-1,1-1h632.3c0.6,0,1,0.5,1,1C634.3,156.5,633.9,157,633.3,157z"/>
<ellipse class="st0" cx="23.3" cy="131.6" rx="10.9" ry="11.2"/>
<ellipse class="st0" cx="61.1" cy="131.6" rx="10.9" ry="11.2"/>
<ellipse class="st0" cx="98.8" cy="131.6" rx="10.9" ry="11.2"/>
<path class="st1" d="M610.7,123.2h-26.8c-1.1,0-2,0.9-2,2.1c0,1.1,0.9,2,2,2h26.8c1.1,0,2-0.9,2-2.1
	C612.7,124.1,611.8,123.2,610.7,123.2z"/>
<path class="st1" d="M610.7,130.8h-26.8c-1.1,0-2,0.9-2,2.1c0,1.1,0.9,2,2,2h26.8c1.1,0,2-0.9,2-2.1
	C612.7,131.7,611.8,130.8,610.7,130.8z"/>
<path class="st1" d="M610.7,138.4h-26.8c-1.1,0-2,0.9-2,2.1c0,1.1,0.9,2,2,2h26.8c1.1,0,2-0.9,2-2.1
	C612.7,139.3,611.8,138.4,610.7,138.4z"/>
<path class="st3" d="M166.7,198.3h-28.4c-16,31.5-27.3,65.2-33.4,100.1h61.8c8.3,0,15-6.7,15-14.9c0,0,0,0,0-0.1v-70.1
	C181.6,205.1,174.9,198.4,166.7,198.3z"/>
<path class="st3" d="M377,198.3H248.3c-8.3,0-15,6.7-15,15v70.1c0,8.3,6.7,15,15,15H377c8.3,0,15-6.7,15-15v-70.1
	C392,205.1,385.2,198.4,377,198.3z"/>
<path class="st3" d="M587.3,198.3H458.6c-8.3,0-15,6.7-15,15v70.1c0,8.3,6.7,15,15,15h128.6c8.3,0,15-6.7,15-15v-70.1
	C602.3,205.1,595.6,198.4,587.3,198.3z"/>
<path class="st3" d="M166.7,345.3h-67c-0.2,5.5-0.4,11.1-0.4,16.6c0,28.1,3.2,56.1,9.7,83.4h57.8c8.3,0,15-6.7,15-15v-70.1
	C181.6,352.1,174.9,345.4,166.7,345.3z"/>
<path class="st3" d="M377,345.3H248.3c-8.3,0-15,6.7-15,15v70.1c0,8.3,6.7,15,15,15H377c8.3,0,15-6.7,15-15v-70.1
	C392,352.1,385.2,345.4,377,345.3z"/>
<path class="st3" d="M587.3,345.3H458.6c-8.3,0-15,6.7-15,15v70.1c0,8.3,6.7,15,15,15h128.6c0.4,0,0.8,0,1.2-0.1
	c1.6-0.1,3.2-0.5,4.7-1.2c5.5-2.3,9-7.7,9.1-13.7v-70.2C602.3,352.1,595.6,345.4,587.3,345.3z"/>
<circle class="st1" cx="169.3" cy="285.4" r="29.8"/>
<path class="st0" d="M165.3,300.9c-1,0-2-0.5-2.6-1.3l-8.1-10.8c-1.1-1.5-0.8-3.5,0.7-4.6c1.5-1.1,3.5-0.8,4.6,0.7c0,0,0,0,0,0
	l5.3,7.1l13.6-20.5c1-1.5,3.1-1.9,4.6-0.9c1.5,1,1.9,3.1,0.9,4.6c0,0,0,0,0,0L168,299.4C167.4,300.3,166.5,300.8,165.3,300.9
	C165.3,300.9,165.3,300.9,165.3,300.9z"/>
<circle class="st1" cx="386.3" cy="288.4" r="29.8"/>
<path class="st0" d="M382.3,303.9c-1,0-2-0.5-2.6-1.3l-8.1-10.8c-1.1-1.5-0.8-3.5,0.7-4.6c1.5-1.1,3.5-0.8,4.6,0.7l5.3,7.1
	l13.6-20.5c1-1.5,3.1-1.9,4.6-0.9c1.5,1,1.9,3.1,0.9,4.6L385,302.4C384.4,303.3,383.5,303.8,382.3,303.9
	C382.3,303.9,382.3,303.9,382.3,303.9z"/>
<path class="st4" d="M811.3,448.7l-9.3-90.2l-2.5-37.1l26.1-4.7c0,0,3.9,25.5,7.3,40.5c3.4,14.8-4.5,89.5-4.7,91.5
	c5.2,4.7,5.7,12.7,1,17.9s-12.7,5.7-17.9,1c-5.2-4.7-5.7-12.7-1-17.9C810.6,449.4,811,449,811.3,448.7L811.3,448.7z"/>
<polygon class="st4" points="744.6,717.1 731.7,720.1 714.1,671.6 733.2,667.3 "/>
<path class="st3" d="M746.9,712.1l-3.3,0.8l-0.3,0.1l-15.1-2.5l-0.4-0.1l-6.3,7.5c-9,2.1-14.6,11-12.5,19.9l0,0.1l0.1,0.4l1.9-0.4
	l39.8-9.1L746.9,712.1z"/>
<polygon class="st4" points="821.7,725.6 808.4,725.6 802.1,674.4 821.7,674.4 "/>
<path class="st3" d="M821.3,721.3l-1.2-0.5l-13-5.3l-0.4-0.2l-7.8,5.9c-9.2,0-16.6,7.4-16.7,16.6c0,0,0,0,0,0v0.5l36.6,0h6.2v-17.2
	L821.3,721.3z"/>
<path class="st3" d="M801.5,451.8l11.2,106c0,0,14.9,106.1,12.1,120.8c-2.8,14.6,0.7,16.7,0.7,16.7l-25.4-1.8c0,0,0.7-9.1-3.5-13.2
	s-2.1-16.7-2.1-16.7L745,490.8l-30,90.6c0,0,18.9,73.5,18.2,74.9c-0.7,1.4,12,32,12,32l-28.4,9.4c0,0,3.5-11.2-1.4-14.6
	c-4.9-3.5-9.1-0.7-4.9-7s-33-52.4-32.1-82.1c0.2-8.9,0.5-18.5,0.9-28.3c1.9-52,5.5-110.5,12-114
	C703.2,445.5,801.5,451.8,801.5,451.8z"/>
<circle class="st4" cx="748.7" cy="209.7" r="27.4"/>
<path class="st5" d="M840.3,377.4l-37.3,9.5l0.3-10.5l-2.8-3l-5.7-29.6l-6-76.6l20.6,10.9l0,0c3.6,4,6.6,8.4,8.9,13.2
	c7.8,15.8,15.2,50.5,19.1,70.7c0.1,0.4,0.4,0.8,0.7,1.1C842.2,366.7,843.1,372.7,840.3,377.4L840.3,377.4z"/>
<path class="st4" d="M620.1,411.3c0,0,51.4-54.2,51.9-55.2c3.6-27.3,13.9-39.3,15.5-38l26.7,9.2c0,0-7.9,25.1-13.3,40
	c-5.1,14.3-64.3,49.1-65.3,50.8c2.9,6.4,0.1,13.9-6.3,16.8c-6.4,2.9-13.9,0.1-16.8-6.3c-2.9-6.4-0.1-13.9,6.3-16.8
	C619.2,411.6,619.7,411.4,620.1,411.3z"/>
<path class="st5" d="M727,272.1c0,0-23.1-11.3-32,10.9c-4.9,12.5-17.5,43-23.7,61.7c0,0.1-0.1,0.2-0.2,0.3c-1.7,2.5-2.6,5.4-2.6,8.4
	c0,0.2,0,0.4-0.1,0.6c0,0,25.4,4.9,32.9,18.2l3-3.2l0.5-2.3L727,272.1z"/>
<path class="st5" d="M811,463.3c-53.1,11-123.6-7.9-123.6-7.9l18.8-81.4l-6.7-85.2c-0.8-10.4,5.1-20.2,14.4-23.7l12.8-4.8l10.5-15.1
	l30.1,1l12,15.8l9.5,5l20.6,10.9l0.1,0v0l-6.5,62.7l-3.9,37.8c0,0,11.8,42.5,9.4,48.1c-2.4,5.6-0.3,2.9,0.3,5.9
	c0.6,3,2.4,3.2,2.7,9.1C811.7,447.7,811,463.3,811,463.3z"/>
<path class="st1" d="M778.4,200c-2.2-2.1,1.1-7.8,0.5-10.8c-0.7-3.4-4.5-3.5-5.4-6.9c-1-3.6-4.8-5.6-8.4-6.8
	c-9.2-2.9-18.9-3.4-28.3-1.3c-4.2,1-8.3,2.3-12.3,3.8c-2.8,1-0.1-1.7-2.9-0.7c-1,0.2-2,0.8-2.6,1.7c-0.5,0.9,0.2,2.4,1.2,2.3
	c-3.4,1.5-6.8,3-10.1,4.5c1.9,2,3.8,4,5.7,6c-2.7-0.8-5.6,2.4-4.5,5c0.9,1.7,2.5,2.8,4.4,3c3,0.6,0.7,3.5,3.8,3.4
	c3.1-0.1,24.7-6.4,26.2-3.7c1.1,1.9,1,4.5,2.5,6.1c2,2,5.4,1.3,7.9,0c2.5-1.3,5-3.1,7.8-2.8c2.9,0.3,5.1,5.7,5.9,8.6
	c0.7,2.9,0.3,5.9-0.2,8.8c-0.6,3.8-6.6,7.7-7.2,11.5c6.7,1.9,13.9-4,16.5-14.3C778.6,210.8,783,204.5,778.4,200z"/>
<circle class="st1" cx="594.3" cy="430.4" r="29.8"/>
<path class="st0" d="M590.3,445.9c-1,0-2-0.5-2.6-1.3l-8.1-10.8c-1.1-1.5-0.8-3.5,0.7-4.6c1.5-1.1,3.5-0.8,4.6,0.7l5.3,7.1
	l13.6-20.5c1-1.5,3.1-1.9,4.6-0.9c1.5,1,1.9,3.1,0.9,4.6L593,444.4C592.4,445.3,591.5,445.8,590.3,445.9
	C590.3,445.9,590.3,445.9,590.3,445.9z"/>
<path class="st6" d="M914.9,739.2c0,0.7-0.5,1.2-1.2,1.2c0,0,0,0,0,0H633.5c-0.7,0-1.2-0.5-1.2-1.2s0.5-1.2,1.2-1.2h280.3
	C914.4,738,914.9,738.5,914.9,739.2C914.9,739.2,914.9,739.2,914.9,739.2z"/>
</svg>
